# Blender 4.5.3 LTS
# www.blender.org
mtllib badlymodeledstaircaselol3.mtl
o blenderstaircasecreator
v 0.000000 -0.500000 0.500000
v -0.000000 -0.500000 -0.500000
v 0.000000 0.302327 -0.313993
v 0.000000 0.500000 -0.500000
v 0.000000 0.500000 -0.423671
v 0.000000 -0.421216 0.500000
v -0.000000 0.430581 -0.423671
v 0.000000 0.362449 -0.313993
v -0.000000 0.299904 -0.256350
v 0.000000 0.243774 -0.197114
v -0.000000 0.181164 -0.145366
v 0.000000 0.132852 -0.095828
v -0.000000 0.071642 -0.095828
v 0.000000 -0.003586 -0.029157
v -0.000000 -0.076926 0.051995
v 0.000000 -0.142760 0.126151
v -0.000000 -0.207294 0.200110
v 0.000000 -0.276003 0.261792
v -0.000000 -0.351906 0.330346
v 0.000000 -0.351906 0.423830
v 0.002774 -0.421216 0.423830
v 0.000000 0.181594 -0.198018
v 0.000000 -0.278021 0.327810
v 0.000000 0.243774 -0.256350
v 0.000000 0.135401 -0.145366
v 0.000000 0.068883 -0.029157
v 0.000000 -0.003293 0.051995
v 0.000000 -0.076926 0.126151
v 0.000000 -0.142760 0.200110
v 0.000000 -0.207294 0.260504
v 0.000000 0.362449 -0.368035
v 0.000000 0.428430 -0.368035
v 0.001387 -0.421216 0.461915
v 0.000000 -0.470955 0.500000
v 0.000000 -0.485477 0.500000
v 0.000000 -0.492739 0.500000
v 0.000000 -0.076926 0.089311
v 0.000000 -0.003488 -0.002826
v 0.000000 -0.003391 0.023506
v 0.000000 -0.351906 0.362765
v 0.000000 -0.351906 0.395183
v 0.000000 -0.038001 0.051995
v 0.002080 -0.421216 0.442873
v 1.526949 -0.500000 0.500000
v 1.526949 -0.500000 -0.500000
v 1.526949 0.302327 -0.313993
v 1.526949 0.500000 -0.500000
v 1.526949 0.500000 -0.423671
v 1.526949 -0.421216 0.500000
v 1.526949 0.430581 -0.423671
v 1.526949 0.362449 -0.313993
v 1.526949 0.299904 -0.256350
v 1.526949 0.243774 -0.197114
v 1.526949 0.181164 -0.145366
v 1.526949 0.132852 -0.095828
v 1.526949 0.071642 -0.095828
v 1.526949 -0.003586 -0.029157
v 1.526949 -0.076926 0.051995
v 1.526949 -0.142760 0.126151
v 1.526949 -0.207294 0.200110
v 1.526949 -0.276003 0.261792
v 1.526949 -0.351906 0.330346
v 1.526949 -0.351906 0.423830
v 1.529723 -0.421216 0.423830
v 1.526949 0.181594 -0.198018
v 1.526949 -0.278021 0.327810
v 1.526949 0.243774 -0.256350
v 1.526949 0.135401 -0.145366
v 1.526949 0.068883 -0.029157
v 1.526949 -0.003293 0.051995
v 1.526949 -0.076926 0.126151
v 1.526949 -0.142760 0.200110
v 1.526949 -0.207294 0.260504
v 1.526949 0.362449 -0.368035
v 1.526949 0.428430 -0.368035
v 1.528336 -0.421216 0.461915
v 1.526949 -0.470955 0.500000
v 1.526949 -0.485477 0.500000
v 1.526949 -0.492739 0.500000
v 1.526949 -0.076926 0.089311
v 1.526949 -0.003488 -0.002826
v 1.526949 -0.003391 0.023506
v 1.526949 -0.351906 0.362765
v 1.526949 -0.351906 0.395183
v 1.526949 -0.038001 0.051995
v 1.529029 -0.421216 0.442873
vn -1.0000 0.0002 0.0002
vn 1.0000 -0.0002 -0.0002
vn -0.0000 0.9995 0.0305
vn -0.0000 1.0000 0.0082
vn -0.0000 1.0000 -0.0000
vn -0.0000 -0.0000 1.0000
vn -0.0000 0.9987 0.0514
vn -0.0000 1.0000 -0.0037
vn -0.0000 0.9991 0.0413
vn -0.0000 1.0000 -0.0034
vn -0.0000 -1.0000 -0.0000
vn -0.0000 -0.0000 -1.0000
vn -0.0000 0.0187 0.9998
vn -0.0000 0.0343 0.9994
vn -0.0000 0.9993 0.0386
vn -0.0000 0.9991 0.0420
vn -0.0000 -0.0145 0.9999
vt 0.000000 0.000000
vt 0.000919 0.061038
vt 0.064440 0.061327
vt 0.064569 0.123394
vt 0.123554 0.123547
vt 0.128038 0.123959
vt 0.127363 0.185755
vt 0.192572 0.184381
vt 0.191317 0.245860
vt 0.212351 0.246303
vt 0.233386 0.246746
vt 0.254420 0.247190
vt 0.254370 0.308161
vt 0.316454 0.308843
vt 0.317707 0.372366
vt 0.378635 0.371292
vt 0.377608 0.434755
vt 0.441176 0.434237
vt 0.442589 0.497512
vt 0.474054 0.497467
vt 0.505520 0.497422
vt 0.504444 0.528874
vt 0.503367 0.560326
vt 0.524386 0.561198
vt 0.545405 0.562069
vt 0.566424 0.562941
vt 0.564705 0.619664
vt 0.626698 0.623749
vt 0.628919 0.683796
vt 0.691265 0.685165
vt 0.692087 0.743664
vt 0.754659 0.745649
vt 0.754731 0.808669
vt 0.815492 0.811187
vt 0.815706 0.873031
vt 0.875639 0.873513
vt 0.876609 0.935763
vt 0.907342 0.935372
vt 0.922709 0.935176
vt 0.938075 0.934980
vt 0.939060 1.000000
vt 1.000000 1.000000
vt 1.000000 0.000000
s 0
usemtl blenderstaircasecreator
f 1/1/1 36/2/1 35/3/1 34/4/1 6/5/1 33/6/1 43/7/1 21/8/1 20/9/1 41/10/1 40/11/1 19/12/1 23/13/1 18/14/1 30/15/1 17/16/1 29/17/1 16/18/1 28/19/1 37/20/1 15/21/1 42/22/1 27/23/1 39/24/1 38/25/1 14/26/1 26/27/1 13/28/1 12/29/1 25/30/1 11/31/1 22/32/1 10/33/1 24/34/1 9/35/1 3/36/1 8/37/1 31/38/1 32/39/1 7/40/1 5/41/1 4/42/1 2/43/1
f 44/1/2 45/43/2 47/42/2 48/41/2 50/40/2 75/39/2 74/38/2 51/37/2 46/36/2 52/35/2 67/34/2 53/33/2 65/32/2 54/31/2 68/30/2 55/29/2 56/28/2 69/27/2 57/26/2 81/25/2 82/24/2 70/23/2 85/22/2 58/21/2 80/20/2 71/19/2 59/18/2 72/17/2 60/16/2 73/15/2 61/14/2 66/13/2 62/12/2 83/11/2 84/10/2 63/9/2 64/8/2 86/7/2 76/6/2 49/5/2 77/4/2 78/3/2 79/2/2
f 18/14/3 23/13/3 66/13/3 61/14/3
f 22/32/4 11/31/4 54/31/4 65/32/4
f 15/21/5 37/20/5 80/20/5 58/21/5
f 9/35/6 24/34/6 67/34/6 52/35/6
f 25/30/7 12/29/7 55/29/7 68/30/7
f 14/26/8 38/25/8 81/25/8 57/26/8
f 11/31/6 25/30/6 68/30/6 54/31/6
f 12/29/6 13/28/6 56/28/6 55/29/6
f 38/25/8 39/24/8 82/24/8 81/25/8
f 13/28/9 26/27/9 69/27/9 56/28/9
f 26/27/6 14/26/6 57/26/6 69/27/6
f 19/12/5 40/11/5 83/11/5 62/12/5
f 39/24/10 27/23/10 70/23/10 82/24/10
f 42/22/6 15/21/6 58/21/6 85/22/6
f 40/11/5 41/10/5 84/10/5 83/11/5
f 36/2/6 1/1/6 44/1/6 79/2/6
f 37/20/5 28/19/5 71/19/5 80/20/5
f 28/19/6 16/18/6 59/18/6 71/19/6
f 27/23/6 42/22/6 85/22/6 70/23/6
f 1/1/11 2/43/11 45/43/11 44/1/11
f 16/18/5 29/17/5 72/17/5 59/18/5
f 29/17/6 17/16/6 60/16/6 72/17/6
f 21/8/5 43/7/5 86/7/5 64/8/5
f 2/43/12 4/42/12 47/42/12 45/43/12
f 17/16/5 30/15/5 73/15/5 60/16/5
f 30/15/13 18/14/13 61/14/13 73/15/13
f 4/42/5 5/41/5 48/41/5 47/42/5
f 32/39/6 31/38/6 74/38/6 75/39/6
f 23/13/14 19/12/14 62/12/14 66/13/14
f 8/37/6 3/36/6 46/36/6 51/37/6
f 7/40/15 32/39/15 75/39/15 50/40/15
f 41/10/5 20/9/5 63/9/5 84/10/5
f 5/41/6 7/40/6 50/40/6 48/41/6
f 43/7/5 33/6/5 76/6/5 86/7/5
f 20/9/6 21/8/6 64/8/6 63/9/6
f 31/38/5 8/37/5 51/37/5 74/38/5
f 6/5/6 34/4/6 77/4/6 49/5/6
f 33/6/5 6/5/5 49/5/5 76/6/5
f 3/36/16 9/35/16 52/35/16 46/36/16
f 34/4/6 35/3/6 78/3/6 77/4/6
f 10/33/17 22/32/17 65/32/17 53/33/17
f 24/34/5 10/33/5 53/33/5 67/34/5
f 35/3/6 36/2/6 79/2/6 78/3/6
