# Blender 4.5.3 LTS
# www.blender.org
mtllib bazaarcloth.mtl
o Plane
v -1.000000 0.260067 1.000000
v 1.000000 0.000000 1.000000
v -1.000000 0.260067 -1.000000
v 1.000000 0.000000 -1.000000
v -0.504581 0.058249 1.000000
v -0.004581 0.000000 1.000000
v 0.495419 0.000000 1.000000
v 0.495419 0.000000 -1.000000
v -0.004581 0.000000 -1.000000
v -0.504581 0.058249 -1.000000
vn -0.0000 1.0000 -0.0000
vn 0.3773 0.9261 -0.0000
vn 0.1157 0.9933 -0.0000
vt 0.747710 0.000000
vt 1.000000 0.000000
vt 1.000000 1.000000
vt 0.747710 1.000000
vt 0.000000 0.000000
vt 0.247710 0.000000
vt 0.247709 1.000000
vt 0.000000 1.000000
vt 0.497710 0.000000
vt 0.497709 1.000000
s 0
f 7/1/1 2/2/1 4/3/1 8/4/1
f 1/5/2 5/6/2 10/7/2 3/8/2
f 5/6/3 6/9/3 9/10/3 10/7/3
f 6/9/1 7/1/1 8/4/1 9/10/1
