# Blender 4.5.3 LTS
# www.blender.org
mtllib lightstool.mtl
o Cube
v -0.460773 0.150588 -0.153591
v -0.460773 0.150588 -0.153591
v -0.460773 0.150588 -0.153591
v -0.494294 -0.150588 -0.164765
v 0.460773 0.150588 -0.153591
v 0.494294 -0.150588 -0.164765
v 0.460773 0.150588 -0.153591
v 0.460773 0.150588 -0.153591
v 0.164765 -0.150588 -0.494294
v -0.164765 -0.150588 -0.494294
v -0.153591 0.150588 -0.460773
v 0.153591 0.150588 -0.460773
v -0.164765 -0.150588 0.494294
v 0.164765 -0.150588 0.494294
v 0.153591 0.150588 0.460773
v -0.153591 0.150588 0.460773
v -0.494294 -0.150588 -0.164765
v -0.494294 -0.150588 0.164765
v -0.460773 0.150588 0.153591
v -0.460773 0.150588 -0.153591
v 0.494294 -0.150588 0.164765
v 0.494294 -0.150588 -0.164765
v 0.460773 0.150588 -0.153591
v 0.460773 0.150588 0.153591
v 0.310353 0.150588 -0.310353
v 0.310353 0.150588 0.310353
v -0.310353 0.150588 -0.310353
v -0.310353 0.150588 0.310353
v -0.164765 -0.150588 -0.164765
v -0.164765 -0.150588 0.164765
v 0.164765 -0.150588 -0.164765
v 0.164765 -0.150588 0.164765
v 0.164765 1.981527 -0.164765
v 0.164765 1.981527 0.164765
v -0.164765 1.981527 -0.164765
v -0.164765 1.981527 0.164765
v 0.451122 2.318436 -0.451122
v 0.618605 2.298013 0.618605
v -0.451122 2.318436 -0.451122
v -0.627909 2.298013 0.618605
v 0.054922 -0.150588 -0.494294
v -0.054922 -0.150588 -0.494294
v -0.051197 0.150588 -0.460773
v 0.051197 0.150588 -0.460773
v -0.054922 -0.150588 0.494294
v 0.054922 -0.150588 0.494294
v 0.051197 0.150588 0.460773
v -0.051197 0.150588 0.460773
v 0.054922 -0.150588 -0.164765
v -0.054922 -0.150588 -0.164765
v 0.054922 -0.150588 0.164765
v -0.054922 -0.150588 0.164765
v -0.103451 0.150588 -0.310353
v 0.103451 0.150588 -0.310353
v -0.103451 0.150588 0.310353
v 0.103451 0.150588 0.310353
v -0.054922 1.981527 -0.164765
v 0.054922 1.981527 -0.164765
v -0.054922 1.981527 0.164765
v 0.054922 1.981527 0.164765
v -0.253924 2.298012 -0.752467
v 0.244619 2.298012 -0.752467
v -0.253924 2.298012 0.743162
v 0.244619 2.298012 0.743162
v -0.494294 -0.150588 -0.054922
v -0.494294 -0.150588 0.054922
v -0.460773 0.150588 0.051197
v -0.460773 0.150588 -0.051197
v 0.494294 -0.150588 0.054922
v 0.494294 -0.150588 -0.054922
v 0.460773 0.150588 -0.051197
v 0.460773 0.150588 0.051197
v 0.310353 0.150588 -0.103451
v 0.310353 0.150588 0.103451
v -0.310353 0.150588 -0.103451
v -0.310353 0.150588 0.103451
v -0.164765 -0.150588 -0.054922
v -0.164765 -0.150588 0.054922
v 0.164765 -0.150588 -0.054922
v 0.164765 -0.150588 0.054922
v 0.164765 1.981527 -0.054922
v 0.164765 1.981527 0.054922
v -0.164765 1.981527 -0.054922
v -0.164765 1.981527 0.054922
v 0.743162 2.298012 -0.253924
v 0.743162 2.298012 0.244619
v -0.752467 2.298012 -0.253924
v -0.752467 2.298012 0.244619
v 0.618605 2.298013 -0.627909
v 0.618605 2.298013 0.618605
v -0.627909 2.298013 -0.627909
v -0.627909 2.298013 0.618605
v -0.054922 -0.150588 -0.054922
v -0.054922 -0.150588 0.054922
v 0.054922 -0.150588 -0.054922
v 0.054922 -0.150588 0.054922
v -0.253924 2.434815 -0.752467
v 0.244619 2.434815 -0.752467
v -0.253924 2.434815 0.743162
v 0.244619 2.434815 0.743162
v 0.743162 2.434815 -0.253924
v 0.743162 2.434815 0.244619
v -0.752467 2.434815 -0.253924
v -0.752467 2.434815 0.244619
v 0.618605 2.434815 -0.627909
v 0.618605 2.434815 0.618605
v -0.627909 2.434815 -0.627909
v -0.627909 2.434815 0.618605
v 0.000000 -0.150588 -0.494294
v -0.000000 0.150588 -0.460773
v 0.000000 -0.150588 0.494294
v -0.000000 0.150588 0.460773
v 0.000000 -0.150588 -0.164765
v 0.000000 -0.150588 0.164765
v 0.000000 0.150588 -0.310353
v 0.000000 0.150588 0.310353
v 0.000000 1.981527 -0.164765
v 0.000000 1.981527 0.164765
v -0.004652 2.298012 -0.752467
v -0.004652 2.298012 0.743162
v 0.000000 -0.150588 -0.054922
v 0.000000 -0.150588 0.054922
v -0.004652 2.434815 -0.752467
v -0.004652 2.434815 0.743162
v -0.004652 2.434815 -0.627909
v -0.004652 2.434815 0.618605
v -0.494294 -0.150588 0.000000
v -0.460773 0.150588 0.000000
v 0.494294 -0.150588 0.000000
v 0.460773 0.150588 0.000000
v 0.310353 0.150588 0.000000
v -0.310353 0.150588 0.000000
v -0.164765 -0.150588 0.000000
v 0.164765 -0.150588 0.000000
v 0.164765 1.981527 0.000000
v -0.164765 1.981527 0.000000
v 0.743162 2.298012 -0.004652
v -0.752467 2.298012 -0.004652
v -0.054922 -0.150588 0.000000
v 0.054922 -0.150588 0.000000
v 0.743162 2.434815 -0.004652
v -0.752467 2.434815 -0.004652
v 0.618605 2.434815 -0.004652
v -0.627909 2.434815 -0.004652
v 0.000000 2.318435 0.000000
v 0.000000 -0.150588 0.000000
v 0.494294 -0.150588 0.164765
v 0.460773 0.150588 0.153591
v 0.460773 0.150588 0.153591
v 0.460773 0.150588 0.153591
v -0.164765 -0.150588 0.494294
v -0.153591 0.150588 0.460773
v -0.153591 0.150588 0.460773
v -0.153591 0.150588 0.460773
v 0.155984 1.065832 0.155984
v -0.155984 1.065832 0.155984
v -0.155984 1.065832 -0.155984
v 0.155984 1.065832 -0.155984
v 0.051995 1.065832 -0.155984
v -0.051995 1.065832 -0.155984
v -0.051995 1.065832 0.155984
v 0.051995 1.065832 0.155984
v 0.155984 1.065832 0.051995
v 0.155984 1.065832 -0.051995
v -0.155984 1.065832 -0.051995
v -0.155984 1.065832 0.051995
v 0.000000 1.065832 0.155984
v 0.000000 1.065832 -0.155984
v -0.155984 1.065832 0.000000
v 0.155984 1.065832 0.000000
vn 0.7032 0.1044 -0.7032
vn -0.0000 -1.0000 -0.0000
vn 0.7032 0.1044 0.7032
vn -0.0000 1.0000 -0.0000
vn -0.7032 0.1044 0.7032
vn -0.0000 0.1106 0.9939
vn -0.0000 0.1106 -0.9939
vn -0.0000 -0.0096 1.0000
vn -0.7032 0.1044 -0.7032
vn 0.9939 0.1106 -0.0000
vn -0.9939 0.1106 -0.0000
vn 0.3847 -0.8216 -0.4206
vn -1.0000 -0.0096 -0.0000
vn 1.0000 -0.0096 -0.0000
vn -0.0000 -0.0096 -1.0000
vn 0.8298 -0.0000 -0.5580
vn 0.1194 -0.8778 0.4638
vn -0.4583 -0.8809 0.1180
vn -0.4258 -0.8221 -0.3781
vn 0.4201 -0.8216 -0.3854
vn -0.0000 -0.8805 -0.4741
vn -0.1190 -0.8786 0.4624
vn -0.0000 -0.8773 0.4800
vn -0.9274 -0.0000 -0.3741
vn 0.9488 -0.0000 0.3160
vn -0.3160 -0.0000 0.9488
vn -0.9488 -0.0000 -0.3160
vn -0.0591 -0.9965 0.0591
vn 0.9488 -0.0000 -0.3160
vn -0.3781 -0.8221 -0.4258
vn -0.4741 -0.8805 -0.0000
vn 0.0576 -0.9967 0.0576
vn 1.0000 -0.0000 -0.0000
vn 0.4638 -0.8778 0.1194
vn 0.4800 -0.8773 -0.0000
vn 0.0926 0.9914 -0.0926
vn -0.9488 -0.0000 0.3160
vn -0.3160 -0.0000 -0.9488
vn -0.0000 -0.0000 1.0000
vn -1.0000 -0.0000 -0.0000
vn -0.0000 -0.0000 -1.0000
vn 0.3160 -0.0000 -0.9488
vn 0.3160 -0.0000 0.9488
vn -0.0932 0.9913 -0.0932
vn -0.0926 0.9914 0.0926
vn 0.0919 0.9915 0.0919
vn 0.9861 0.1663 -0.0000
vn -0.9861 0.1663 -0.0000
vn -0.0000 0.1663 -0.9861
vn -0.0000 0.1663 0.9861
vt 0.375000 0.416667
vt 0.625000 0.416667
vt 0.708333 0.666667
vt 0.708333 0.750000
vt 0.625000 0.833333
vt 0.375000 0.833333
vt 0.763889 0.666667
vt 0.791667 0.666667
vt 0.791667 0.750000
vt 0.763889 0.750000
vt 0.625000 0.083333
vt 0.375000 0.083333
vt 0.263889 0.666667
vt 0.291667 0.666667
vt 0.291667 0.750000
vt 0.263889 0.750000
vt 0.375000 0.888889
vt 0.625000 0.888889
vt 0.625000 0.916667
vt 0.375000 0.916667
vt 0.708333 0.500000
vt 0.708333 0.583333
vt 0.375000 0.388889
vt 0.625000 0.388889
vt 0.263889 0.500000
vt 0.291667 0.500000
vt 0.291667 0.583333
vt 0.263889 0.583333
vt 0.263889 0.638889
vt 0.291667 0.638889
vt 0.791667 0.583333
vt 0.791667 0.500000
vt 0.125000 0.638889
vt 0.208333 0.638889
vt 0.208333 0.666667
vt 0.125000 0.666667
vt 0.763889 0.500000
vt 0.763889 0.583333
vt 0.736111 0.666667
vt 0.625000 0.638889
vt 0.708333 0.638889
vt 0.625000 0.666667
vt 0.625000 0.333333
vt 0.375000 0.333333
vt 0.791667 0.638889
vt 0.875000 0.638889
vt 0.875000 0.666667
vt 0.375000 0.638889
vt 0.375000 0.666667
vt 0.375000 0.138889
vt 0.625000 0.138889
vt 0.625000 0.166667
vt 0.375000 0.166667
vt 0.708333 0.611111
vt 0.708333 0.611111
vt 0.791667 0.638889
vt 0.763889 0.638889
vt 0.736111 0.583333
vt 0.750000 0.583333
vt 0.750000 0.666667
vt 0.736111 0.638889
vt 0.736111 0.500000
vt 0.750000 0.500000
vt 0.236111 0.638889
vt 0.236111 0.666667
vt 0.250000 0.638889
vt 0.250000 0.666667
vt 0.208333 0.500000
vt 0.236111 0.500000
vt 0.236111 0.583333
vt 0.208333 0.583333
vt 0.250000 0.500000
vt 0.250000 0.583333
vt 0.625000 0.361111
vt 0.375000 0.361111
vt 0.375000 0.375000
vt 0.625000 0.375000
vt 0.625000 0.861111
vt 0.375000 0.861111
vt 0.375000 0.875000
vt 0.625000 0.875000
vt 0.236111 0.750000
vt 0.208333 0.750000
vt 0.250000 0.750000
vt 0.736111 0.750000
vt 0.750000 0.750000
vt 0.263889 0.611111
vt 0.250000 0.611111
vt 0.250000 0.625000
vt 0.263889 0.625000
vt 0.236111 0.611111
vt 0.208333 0.611111
vt 0.208333 0.625000
vt 0.236111 0.625000
vt 0.763889 0.611111
vt 0.791667 0.611111
vt 0.736111 0.611111
vt 0.791667 0.611111
vt 0.791667 0.625000
vt 0.708333 0.625000
vt 0.708333 0.638889
vt 0.625000 0.111111
vt 0.375000 0.111111
vt 0.375000 0.125000
vt 0.625000 0.125000
vt 0.375000 0.583333
vt 0.625000 0.583333
vt 0.625000 0.611111
vt 0.375000 0.611111
vt 0.375000 0.625000
vt 0.625000 0.625000
vt 0.291667 0.611111
vt 0.291667 0.625000
vt 0.875000 0.583333
vt 0.875000 0.611111
vt 0.875000 0.625000
vt 0.125000 0.583333
vt 0.125000 0.611111
vt 0.125000 0.625000
vt 0.750000 0.638889
vt 0.750000 0.611111
vt 0.750000 0.625000
vt 0.763889 0.625000
vt 0.736111 0.625000
s 0
f 9/1/1 12/2/1 5/2/1 6/1/1
f 26/3/2 15/4/2 149/4/2 150/3/2
f 15/5/3 14/6/3 147/6/3 148/5/3
f 55/7/4 28/8/4 16/9/4 48/10/4
f 19/11/5 18/12/5 151/12/5 152/11/5
f 51/13/2 32/14/2 14/15/2 46/16/2
f 45/17/6 48/18/6 16/19/6 13/20/6
f 12/21/2 25/22/2 7/22/2 8/21/2
f 41/23/7 44/24/7 12/2/7 9/1/7
f 41/25/2 9/26/2 31/27/2 49/28/2
f 96/29/2 80/30/2 32/14/2 51/13/2
f 27/31/2 11/32/2 2/32/2 1/31/2
f 66/33/2 78/34/2 30/35/2 18/36/2
f 43/37/4 11/32/4 27/31/4 53/38/4
f 162/39/8 155/3/8 34/3/8 60/39/8
f 72/40/4 74/41/4 26/3/4 24/42/4
f 11/43/9 10/44/9 4/44/9 3/43/9
f 76/45/4 67/46/4 19/47/4 28/8/4
f 80/30/2 69/48/2 21/49/2 32/14/2
f 69/48/10 72/40/10 24/42/10 21/49/10
f 28/8/2 19/47/2 153/47/2 154/8/2
f 65/50/11 68/51/11 20/52/11 17/53/11
f 81/54/12 33/22/12 37/22/12 85/55/12
f 166/45/13 156/8/13 36/8/13 84/56/13
f 164/54/14 158/22/14 33/22/14 81/54/14
f 160/38/15 157/31/15 35/31/15 57/38/15
f 92/57/16 88/45/16 40/8/16 63/7/16
f 60/39/17 34/3/17 38/3/17 64/39/17
f 84/56/18 36/8/18 40/8/18 88/45/18
f 57/38/19 35/31/19 39/31/19 61/38/19
f 33/22/20 58/58/20 62/58/20 37/22/20
f 117/59/21 57/38/21 61/38/21 119/59/21
f 36/8/22 59/7/22 63/7/22 40/8/22
f 118/60/23 60/39/23 64/39/23 120/60/23
f 86/41/24 90/61/24 64/39/24 38/3/24
f 90/61/25 86/41/25 102/41/25 106/61/25
f 158/22/15 159/58/15 58/58/15 33/22/15
f 168/59/15 160/38/15 57/38/15 117/59/15
f 156/8/8 161/7/8 59/7/8 36/8/8
f 167/60/8 162/39/8 60/39/8 118/60/8
f 12/21/4 44/62/4 54/58/4 25/22/4
f 110/63/4 43/37/4 53/38/4 115/59/4
f 78/34/2 94/64/2 52/65/2 30/35/2
f 122/66/2 96/29/2 51/13/2 114/67/2
f 10/68/2 42/69/2 50/70/2 29/71/2
f 109/72/2 41/25/2 49/28/2 113/73/2
f 10/44/7 11/43/7 43/74/7 42/75/7
f 109/76/7 110/77/7 44/24/7 41/23/7
f 14/6/6 15/5/6 47/78/6 46/79/6
f 111/80/6 112/81/6 48/18/6 45/17/6
f 30/35/2 52/65/2 45/82/2 13/83/2
f 114/67/2 51/13/2 46/16/2 111/84/2
f 26/3/4 56/39/4 47/85/4 15/4/4
f 116/60/4 55/7/4 48/10/4 112/86/4
f 113/73/2 49/28/2 95/87/2 121/88/2
f 146/89/2 140/90/2 96/29/2 122/66/2
f 29/71/2 50/70/2 93/91/2 77/92/2
f 133/93/2 139/94/2 94/64/2 78/34/2
f 92/57/26 63/7/26 99/7/26 108/57/26
f 91/95/27 87/96/27 103/96/27 107/95/27
f 37/22/28 62/58/28 89/97/28 85/55/28
f 85/55/29 89/97/29 105/97/29 101/55/29
f 35/31/30 83/98/30 87/96/30 39/31/30
f 136/99/31 84/56/31 88/45/31 138/99/31
f 61/38/32 39/31/32 87/96/32 91/95/32
f 137/100/33 85/55/33 101/55/33 141/100/33
f 155/3/14 163/41/14 82/101/14 34/3/14
f 170/100/14 164/54/14 81/54/14 135/100/14
f 157/31/13 165/98/13 83/98/13 35/31/13
f 169/99/13 166/45/13 84/56/13 136/99/13
f 34/3/34 82/101/34 86/41/34 38/3/34
f 135/100/35 81/54/35 85/55/35 137/100/35
f 18/12/11 19/11/11 67/102/11 66/103/11
f 127/104/11 128/105/11 68/51/11 65/50/11
f 22/106/10 23/107/10 71/108/10 70/109/10
f 129/110/10 130/111/10 72/40/10 69/48/10
f 31/27/2 22/106/2 70/109/2 79/112/2
f 134/113/2 129/110/2 69/48/2 80/30/2
f 27/31/4 20/114/4 68/115/4 75/98/4
f 132/99/4 128/116/4 67/46/4 76/45/4
f 23/107/4 25/22/4 73/54/4 71/108/4
f 130/111/4 131/100/4 74/41/4 72/40/4
f 17/117/2 29/71/2 77/92/2 65/118/2
f 127/119/2 133/93/2 78/34/2 66/33/2
f 49/28/2 31/27/2 79/112/2 95/87/2
f 140/90/2 134/113/2 80/30/2 96/29/2
f 126/120/4 108/57/4 99/7/4 124/60/4
f 123/59/4 97/38/4 107/95/4 125/121/4
f 145/122/36 144/123/36 108/57/36 126/120/36
f 141/100/4 143/124/4 106/61/4 102/41/4
f 144/123/4 142/99/4 104/45/4 108/57/4
f 88/45/37 92/57/37 108/57/37 104/45/37
f 61/38/38 91/95/38 107/95/38 97/38/38
f 120/60/39 64/39/39 100/39/39 124/60/39
f 138/99/40 88/45/40 104/45/40 142/99/40
f 119/59/41 61/38/41 97/38/41 123/59/41
f 89/97/42 62/58/42 98/58/42 105/97/42
f 64/39/43 90/61/43 106/61/43 100/39/43
f 62/58/41 119/59/41 123/59/41 98/58/41
f 63/7/39 120/60/39 124/60/39 99/7/39
f 143/124/44 145/122/44 126/120/44 106/61/44
f 98/58/4 123/59/4 125/121/4 105/97/4
f 106/61/4 126/120/4 124/60/4 100/39/4
f 139/94/2 146/89/2 122/66/2 94/64/2
f 50/70/2 113/73/2 121/88/2 93/91/2
f 56/39/4 116/60/4 112/86/4 47/85/4
f 52/65/2 114/67/2 111/84/2 45/82/2
f 46/79/6 47/78/6 112/81/6 111/80/6
f 42/75/7 43/74/7 110/77/7 109/76/7
f 42/69/2 109/72/2 113/73/2 50/70/2
f 94/64/2 122/66/2 114/67/2 52/65/2
f 44/62/4 110/63/4 115/59/4 54/58/4
f 161/7/8 167/60/8 118/60/8 59/7/8
f 159/58/15 168/59/15 117/59/15 58/58/15
f 59/7/23 118/60/23 120/60/23 63/7/23
f 58/58/21 117/59/21 119/59/21 62/58/21
f 93/91/2 121/88/2 146/89/2 139/94/2
f 105/97/45 125/121/45 145/122/45 143/124/45
f 87/96/40 138/99/40 142/99/40 103/96/40
f 107/95/4 103/96/4 142/99/4 144/123/4
f 101/55/4 105/97/4 143/124/4 141/100/4
f 125/121/46 107/95/46 144/123/46 145/122/46
f 95/87/2 79/112/2 134/113/2 140/90/2
f 65/118/2 77/92/2 133/93/2 127/119/2
f 71/108/4 73/54/4 131/100/4 130/111/4
f 75/98/4 68/115/4 128/116/4 132/99/4
f 79/112/2 70/109/2 129/110/2 134/113/2
f 70/109/10 71/108/10 130/111/10 129/110/10
f 66/103/11 67/102/11 128/105/11 127/104/11
f 82/101/35 135/100/35 137/100/35 86/41/35
f 165/98/13 169/99/13 136/99/13 83/98/13
f 163/41/14 170/100/14 135/100/14 82/101/14
f 86/41/33 137/100/33 141/100/33 102/41/33
f 83/98/31 136/99/31 138/99/31 87/96/31
f 77/92/2 93/91/2 139/94/2 133/93/2
f 121/88/2 95/87/2 140/90/2 146/89/2
f 74/41/47 131/100/47 170/100/47 163/41/47
f 75/98/48 132/99/48 169/99/48 165/98/48
f 54/58/49 115/59/49 168/59/49 159/58/49
f 55/7/50 116/60/50 167/60/50 161/7/50
f 132/99/48 76/45/48 166/45/48 169/99/48
f 27/31/48 75/98/48 165/98/48 157/31/48
f 131/100/47 73/54/47 164/54/47 170/100/47
f 26/3/47 74/41/47 163/41/47 155/3/47
f 116/60/50 56/39/50 162/39/50 167/60/50
f 28/8/50 55/7/50 161/7/50 156/8/50
f 115/59/49 53/38/49 160/38/49 168/59/49
f 25/22/49 54/58/49 159/58/49 158/22/49
f 53/38/49 27/31/49 157/31/49 160/38/49
f 73/54/47 25/22/47 158/22/47 164/54/47
f 76/45/48 28/8/48 156/8/48 166/45/48
f 56/39/50 26/3/50 155/3/50 162/39/50
