# Blender 4.5.3 LTS
# www.blender.org
mtllib openroofancient.mtl
o Cube
v 2.581723 2.581723 -2.581723
v 2.581723 -1.459536 -2.581723
v 2.581723 2.581723 2.581723
v 2.581723 -1.459536 2.581723
v -2.581723 2.581723 -2.581723
v -2.581723 -1.459536 -2.581723
v -2.581723 2.581723 2.581723
v -2.581723 -1.459536 2.581723
v 0.860574 -1.459536 -2.581723
v -0.860574 -1.459536 -2.581723
v 0.860574 2.581723 2.581723
v -0.860574 2.581723 2.581723
v -0.440973 -1.459536 2.581723
v 0.455762 -1.459536 2.581723
v -0.860574 2.581723 -2.581723
v 0.860574 2.581723 -2.581723
v -2.581723 -1.459536 -0.860574
v -2.581723 -1.459536 0.860574
v 2.581723 2.581723 -0.860574
v 2.581723 2.581723 0.860574
v -2.581723 2.581723 0.860574
v -2.581723 2.581723 -0.860574
v 2.581723 -1.459536 0.860574
v 2.581723 -1.459536 -0.860574
v -0.860574 -1.459536 -0.860574
v -0.860574 -1.459536 0.860574
v 0.860574 -1.459536 -0.860574
v 0.860574 -1.459536 0.860574
v 2.221519 2.581723 -2.221519
v 2.221519 2.581723 2.221519
v -2.221519 2.581723 -2.221519
v -2.221519 2.581723 2.221519
v 0.286858 -1.459536 -2.581723
v -0.286858 -1.459536 -2.581723
v 0.286858 2.581723 2.581723
v -0.286858 2.581723 2.581723
v -0.286858 -1.459536 2.581723
v 0.286858 -1.459536 2.581723
v -0.286858 2.581723 -2.581723
v 0.286858 2.581723 -2.581723
v -0.740506 2.581723 -2.221519
v 0.740506 2.581723 -2.221519
v -0.740506 2.581723 2.221519
v 0.740506 2.581723 2.221519
v 0.286858 -1.459536 -0.860574
v -0.286858 -1.459536 -0.860574
v 0.286858 -1.459536 0.860574
v -0.286858 -1.459536 0.860574
v -2.581723 -1.459536 -0.286858
v -2.581723 -1.459536 0.286858
v 2.581723 2.581723 -0.286858
v 2.581723 2.581723 0.286858
v -2.581723 2.581723 0.286858
v -2.581723 2.581723 -0.286858
v 2.581723 -1.459536 0.286858
v 2.581723 -1.459536 -0.286858
v -0.860574 -1.459536 -0.286858
v -0.860574 -1.459536 0.286858
v 0.860574 -1.459536 -0.286858
v 0.860574 -1.459536 0.286858
v 2.221519 2.581723 -0.740506
v 2.221519 2.581723 0.740506
v -2.221519 2.581723 -0.740506
v -2.221519 2.581723 0.740506
v -0.286858 -1.459536 -0.286858
v -0.286858 -1.459536 0.286858
v 0.286858 -1.459536 -0.286858
v 0.286858 -1.459536 0.286858
v 2.221519 1.681724 -2.221519
v 2.221519 1.681724 2.221519
v -2.221519 1.681724 -2.221519
v -2.221519 1.681724 2.221519
v 2.581723 0.565328 -2.581723
v -2.581723 0.565328 2.581723
v 2.581723 0.565328 2.581723
v -2.581723 0.565328 -2.581723
v -0.860574 0.565328 -2.581723
v 0.860574 0.565328 -2.581723
v 0.455762 0.015918 2.581723
v -0.440973 0.015918 2.581723
v 2.581723 0.565328 -0.860574
v 2.581723 0.565328 0.860574
v -2.581723 0.565328 0.860574
v -2.581723 0.565328 -0.860574
v 0.286858 0.230719 2.581723
v -0.286858 0.230719 2.581723
v -0.286858 0.565328 -2.581723
v 0.286858 0.565328 -2.581723
v -2.581723 0.565328 0.286858
v -2.581723 0.565328 -0.286858
v 2.581723 0.565328 -0.286858
v 2.581723 0.565328 0.286858
v -2.581723 0.743392 2.581723
v 2.581723 0.743392 -2.581723
v 2.581723 0.743392 2.581723
v -2.581723 0.743392 -2.581723
v -0.860574 0.743392 -2.581723
v 0.860574 0.743392 -2.581723
v 0.455762 0.348333 2.581723
v -0.440973 0.348333 2.581723
v 2.581723 0.743392 -0.860574
v 2.581723 0.743392 0.860574
v -2.581723 0.743392 0.860574
v -2.581723 0.743392 -0.860574
v 0.286858 0.438332 2.581723
v -0.286858 0.438332 2.581723
v -0.286858 0.743392 -2.581723
v 0.286858 0.743392 -2.581723
v -2.581723 0.743392 0.286858
v -2.581723 0.743392 -0.286858
v 2.581723 0.743392 -0.286858
v 2.581723 0.743392 0.286858
v 0.455762 0.015918 2.697385
v -0.440973 0.015918 2.697385
v 0.286858 0.230719 2.697385
v -0.286858 0.230719 2.697385
v 0.455762 0.348333 2.697385
v -0.440973 0.348333 2.697385
v 0.286858 0.438332 2.697385
v -0.286858 0.438332 2.697385
v 0.455762 -1.459536 2.697385
v 0.286858 -1.459536 2.697385
v 0.455762 0.015918 2.697385
v 0.286858 0.230719 2.697385
v -0.440973 -1.459536 2.697385
v -0.286858 -1.459536 2.697385
v -0.440973 0.015918 2.697385
v -0.286858 0.230719 2.697385
vn -0.0000 1.0000 -0.0000
vn -0.0000 -0.0000 1.0000
vn -1.0000 -0.0000 -0.0000
vn -0.0000 -1.0000 -0.0000
vn 1.0000 -0.0000 -0.0000
vn -0.0000 -0.0000 -1.0000
vn 0.7071 -0.0000 -0.7071
vn -0.7071 -0.0000 -0.7071
vn -0.7071 -0.0000 0.7071
vn 0.7071 -0.0000 0.7071
vn -0.8125 0.5830 -0.0000
vn -0.5043 0.8635 -0.0000
vn 0.8125 -0.5830 -0.0000
vn -0.7861 -0.6181 -0.0000
vn 0.4702 0.8825 -0.0000
vn 0.7861 0.6181 -0.0000
vt 0.791667 0.666667
vt 0.875000 0.666667
vt 0.875000 0.750000
vt 0.791667 0.750000
vt 0.511277 0.916667
vt 0.625000 0.916667
vt 0.625000 1.000000
vt 0.511277 1.000000
vt 0.511277 0.166667
vt 0.625000 0.166667
vt 0.625000 0.250000
vt 0.511277 0.250000
vt 0.291667 0.666667
vt 0.375000 0.666667
vt 0.375000 0.750000
vt 0.291667 0.750000
vt 0.511277 0.666667
vt 0.625000 0.666667
vt 0.625000 0.750000
vt 0.511277 0.750000
vt 0.511277 0.416667
vt 0.625000 0.416667
vt 0.625000 0.500000
vt 0.511277 0.500000
vt 0.625000 0.333333
vt 0.511277 0.333333
vt 0.511277 0.388889
vt 0.625000 0.388889
vt 0.125000 0.666667
vt 0.208333 0.666667
vt 0.208333 0.750000
vt 0.125000 0.750000
vt 0.263889 0.666667
vt 0.263889 0.750000
vt 0.625000 0.833333
vt 0.511277 0.833333
vt 0.511277 0.888889
vt 0.625000 0.888889
vt 0.708333 0.666667
vt 0.708333 0.750000
vt 0.763889 0.666667
vt 0.763889 0.750000
vt 0.763889 0.500000
vt 0.791667 0.500000
vt 0.791667 0.583333
vt 0.763889 0.583333
vt 0.763889 0.638889
vt 0.791667 0.638889
vt 0.708333 0.500000
vt 0.708333 0.583333
vt 0.625000 0.583333
vt 0.625000 0.638889
vt 0.708333 0.638889
vt 0.263889 0.500000
vt 0.291667 0.500000
vt 0.291667 0.583333
vt 0.263889 0.583333
vt 0.263889 0.638889
vt 0.291667 0.638889
vt 0.125000 0.500000
vt 0.208333 0.500000
vt 0.208333 0.583333
vt 0.125000 0.583333
vt 0.125000 0.638889
vt 0.208333 0.638889
vt 0.511277 0.583333
vt 0.511277 0.638889
vt 0.375000 0.500000
vt 0.375000 0.583333
vt 0.375000 0.638889
vt 0.511277 0.000000
vt 0.625000 0.000000
vt 0.625000 0.083333
vt 0.511277 0.083333
vt 0.511277 0.138889
vt 0.625000 0.138889
vt 0.875000 0.500000
vt 0.875000 0.583333
vt 0.875000 0.638889
vt 0.236111 0.638889
vt 0.236111 0.666667
vt 0.236111 0.500000
vt 0.236111 0.583333
vt 0.736111 0.638889
vt 0.736111 0.666667
vt 0.736111 0.500000
vt 0.736111 0.583333
vt 0.736111 0.750000
vt 0.625000 0.861111
vt 0.511277 0.861111
vt 0.236111 0.750000
vt 0.625000 0.361111
vt 0.511277 0.361111
vt 0.763889 0.611111
vt 0.736111 0.611111
vt 0.708333 0.611111
vt 0.263889 0.611111
vt 0.236111 0.611111
vt 0.208333 0.611111
vt 0.875000 0.611111
vt 0.791667 0.611111
vt 0.625000 0.111111
vt 0.511277 0.111111
vt 0.375000 0.611111
vt 0.291667 0.611111
vt 0.625000 0.611111
vt 0.511277 0.611111
vt 0.125000 0.611111
vt 0.500262 0.611111
vt 0.500262 0.638889
vt 0.500262 0.583333
vt 0.375000 0.111111
vt 0.500262 0.111111
vt 0.500262 0.138889
vt 0.375000 0.138889
vt 0.375000 0.083333
vt 0.500262 0.083333
vt 0.375000 0.361111
vt 0.500262 0.361111
vt 0.500262 0.388889
vt 0.375000 0.388889
vt 0.375000 0.333333
vt 0.500262 0.333333
vt 0.375000 0.861111
vt 0.500262 0.861111
vt 0.500262 0.888889
vt 0.375000 0.888889
vt 0.500262 0.166667
vt 0.375000 0.166667
vt 0.375000 0.000000
vt 0.500262 0.000000
vt 0.500262 0.666667
vt 0.500262 0.500000
vt 0.500262 0.916667
vt 0.500262 0.750000
vt 0.500262 0.833333
vt 0.375000 0.833333
vt 0.500262 0.416667
vt 0.375000 0.416667
vt 0.375000 0.250000
vt 0.500262 0.250000
vt 0.375000 0.916667
vt 0.500262 1.000000
vt 0.375000 1.000000
s 0
usemtl Material
f 32/1/1 21/2/1 7/3/1 12/4/1
f 100/5/2 12/6/2 7/7/2 93/8/2
f 104/9/3 22/10/3 5/11/3 96/12/3
f 28/13/4 23/14/4 4/15/4 14/16/4
f 102/17/5 20/18/5 3/19/5 95/20/5
f 98/21/6 16/22/6 1/23/6 94/24/6
f 96/12/6 5/11/6 15/25/6 97/26/6
f 108/27/6 40/28/6 16/22/6 98/21/6
f 18/29/4 26/30/4 13/31/4 8/32/4
f 47/33/4 28/13/4 14/16/4 38/34/4
f 95/20/2 3/19/2 11/35/2 99/36/2
f 106/37/2 36/38/2 12/6/2 100/5/2
f 20/18/1 30/39/1 11/40/1 3/19/1
f 43/41/1 32/1/1 12/4/1 36/42/1
f 39/43/1 15/44/1 31/45/1 41/46/1
f 72/47/7 64/48/7 32/1/7 43/41/7
f 1/23/1 16/49/1 29/50/1 19/51/1
f 52/52/1 62/53/1 30/39/1 20/18/1
f 33/54/4 9/55/4 27/56/4 45/57/4
f 68/58/4 60/59/4 28/13/4 47/33/4
f 6/60/4 10/61/4 25/62/4 17/63/4
f 50/64/4 58/65/4 26/30/4 18/29/4
f 94/24/5 1/23/5 19/51/5 101/66/5
f 112/67/5 52/52/5 20/18/5 102/17/5
f 9/55/4 2/68/4 24/69/4 27/56/4
f 60/59/4 55/70/4 23/14/4 28/13/4
f 93/71/3 7/72/3 21/73/3 103/74/3
f 110/75/3 54/76/3 22/10/3 104/9/3
f 15/44/1 5/77/1 22/78/1 31/45/1
f 64/48/1 53/79/1 21/2/1 32/1/1
f 58/65/4 66/80/4 48/81/4 26/30/4
f 66/80/4 68/58/4 47/33/4 48/81/4
f 10/61/4 34/82/4 46/83/4 25/62/4
f 34/82/4 33/54/4 45/57/4 46/83/4
f 62/53/8 70/84/8 44/85/8 30/39/8
f 70/84/6 72/47/6 43/41/6 44/85/6
f 16/49/1 40/86/1 42/87/1 29/50/1
f 40/86/1 39/43/1 41/46/1 42/87/1
f 30/39/1 44/85/1 35/88/1 11/40/1
f 44/85/1 43/41/1 36/42/1 35/88/1
f 99/36/2 11/35/2 35/89/2 105/90/2
f 105/90/2 35/89/2 36/38/2 106/37/2
f 26/30/4 48/81/4 37/91/4 13/31/4
f 48/81/4 47/33/4 38/34/4 37/91/4
f 97/26/6 15/25/6 39/92/6 107/93/6
f 107/93/6 39/92/6 40/28/6 108/27/6
f 42/87/2 41/46/2 71/94/2 69/95/2
f 69/95/1 71/94/1 72/47/1 70/84/1
f 29/50/9 42/87/9 69/95/9 61/96/9
f 61/96/3 69/95/3 70/84/3 62/53/3
f 46/83/4 45/57/4 67/97/4 65/98/4
f 65/98/4 67/97/4 68/58/4 66/80/4
f 25/62/4 46/83/4 65/98/4 57/99/4
f 57/99/4 65/98/4 66/80/4 58/65/4
f 31/45/1 22/78/1 54/100/1 63/101/1
f 63/101/1 54/100/1 53/79/1 64/48/1
f 103/74/3 21/73/3 53/102/3 109/103/3
f 109/103/3 53/102/3 54/76/3 110/75/3
f 27/56/4 24/69/4 56/104/4 59/105/4
f 59/105/4 56/104/4 55/70/4 60/59/4
f 101/66/5 19/51/5 51/106/5 111/107/5
f 111/107/5 51/106/5 52/52/5 112/67/5
f 17/63/4 25/62/4 57/99/4 49/108/4
f 49/108/4 57/99/4 58/65/4 50/64/4
f 45/57/4 27/56/4 59/105/4 67/97/4
f 67/97/4 59/105/4 60/59/4 68/58/4
f 19/51/1 29/50/1 61/96/1 51/106/1
f 51/106/1 61/96/1 62/53/1 52/52/1
f 41/46/10 31/45/10 63/101/10 71/94/10
f 71/94/5 63/101/5 64/48/5 72/47/5
f 56/104/5 91/109/5 92/110/5 55/70/5
f 24/69/5 81/111/5 91/109/5 56/104/5
f 50/112/3 89/113/3 90/114/3 49/115/3
f 18/116/3 83/117/3 89/113/3 50/112/3
f 34/118/6 87/119/6 88/120/6 33/121/6
f 10/122/6 77/123/6 87/119/6 34/118/6
f 38/124/2 85/125/2 86/126/2 37/127/2
f 38/34/4 14/16/4 121/16/4 122/34/4
f 49/115/3 90/114/3 84/128/3 17/129/3
f 8/130/3 74/131/3 83/117/3 18/116/3
f 55/70/5 92/110/5 82/132/5 23/14/5
f 2/68/5 73/133/5 81/111/5 24/69/5
f 86/126/11 80/134/11 127/134/11 128/126/11
f 4/15/2 75/135/2 79/136/2 14/137/2
f 33/121/6 88/120/6 78/138/6 9/139/6
f 6/140/6 76/141/6 77/123/6 10/122/6
f 9/139/6 78/138/6 73/133/6 2/68/6
f 23/14/5 82/132/5 75/135/5 4/15/5
f 17/129/3 84/128/3 76/141/3 6/140/3
f 13/142/2 80/134/2 74/143/2 8/144/2
f 91/109/5 111/107/5 112/67/5 92/110/5
f 81/111/5 101/66/5 111/107/5 91/109/5
f 89/113/3 109/103/3 110/75/3 90/114/3
f 83/117/3 103/74/3 109/103/3 89/113/3
f 87/119/6 107/93/6 108/27/6 88/120/6
f 77/123/6 97/26/6 107/93/6 87/119/6
f 79/136/5 99/36/5 117/36/5 113/136/5
f 106/37/12 100/5/12 118/5/12 120/37/12
f 90/114/3 110/75/3 104/9/3 84/128/3
f 74/131/3 93/71/3 103/74/3 83/117/3
f 92/110/5 112/67/5 102/17/5 82/132/5
f 73/133/5 94/24/5 101/66/5 81/111/5
f 80/134/13 86/126/13 116/126/13 114/134/13
f 75/135/2 95/20/2 99/36/2 79/136/2
f 88/120/6 108/27/6 98/21/6 78/138/6
f 76/141/6 96/12/6 97/26/6 77/123/6
f 78/138/6 98/21/6 94/24/6 73/133/6
f 82/132/5 102/17/5 95/20/5 75/135/5
f 84/128/3 104/9/3 96/12/3 76/141/3
f 80/134/2 100/5/2 93/8/2 74/143/2
f 115/125/2 119/90/2 120/37/2 116/126/2
f 113/136/2 117/36/2 119/90/2 115/125/2
f 116/126/2 120/37/2 118/5/2 114/134/2
f 86/126/4 85/125/4 115/125/4 116/126/4
f 105/90/1 106/37/1 120/37/1 119/90/1
f 100/5/3 80/134/3 114/134/3 118/5/3
f 85/125/14 79/136/14 113/136/14 115/125/14
f 99/36/15 105/90/15 119/90/15 117/36/15
f 121/137/2 123/136/2 124/125/2 122/124/2
f 14/137/5 79/136/5 123/136/5 121/137/5
f 79/136/16 85/125/16 124/125/16 123/136/16
f 85/125/3 38/124/3 122/124/3 124/125/3
f 126/127/2 128/126/2 127/134/2 125/142/2
f 80/134/3 13/142/3 125/142/3 127/134/3
f 37/127/5 86/126/5 128/126/5 126/127/5
f 13/31/4 37/91/4 126/91/4 125/31/4
