# Blender 4.5.3 LTS
# www.blender.org
mtllib pyramidentrance.mtl
o Cube.001
v -1.000000 -1.000000 1.184525
v -1.000000 2.394208 0.828099
v -1.000000 -1.000000 -1.000000
v -1.000000 2.394208 -0.873373
v 1.000000 -1.000000 1.184525
v 1.000000 2.394208 0.828099
v 1.000000 -1.000000 -1.137607
v 1.000185 2.394208 -0.869968
v -1.000000 -1.000000 -0.750000
v -1.000000 -1.000000 -0.500000
v -1.000000 -1.000000 -0.250000
v -1.000000 -1.000000 0.000000
v -1.000000 -1.000000 0.250000
v -1.000000 -1.000000 0.500000
v -1.000000 -1.000000 0.750000
v -1.000000 2.461716 0.654234
v -1.000000 2.486418 0.477118
v -1.000000 2.496548 0.250000
v -1.000000 2.496548 0.000000
v -1.000000 2.496548 -0.250000
v -1.000000 2.487768 -0.500000
v -1.000000 2.461716 -0.750000
v 1.000000 -1.000000 0.750000
v 1.000000 -1.000000 0.500000
v 1.000000 -1.000000 0.250000
v 1.000000 -1.000000 0.000000
v 1.000000 -1.000000 -0.250000
v 1.000000 -1.000000 -0.500000
v 1.000000 -1.000000 -0.750000
v 1.000000 2.461716 -0.750000
v 1.000000 2.487768 -0.500000
v 1.000000 2.496548 -0.250000
v 0.999946 2.496548 0.253462
v 1.000000 2.486418 0.477118
v 1.000000 2.461716 0.654234
v -1.000000 2.127177 1.000000
v -1.000000 2.127177 -1.137607
v 1.000000 2.127177 -1.137607
v 1.000000 2.127177 1.184525
v 1.000000 2.127177 -0.750000
v 1.000000 2.127177 -0.500000
v 1.000000 2.127177 -0.250000
v 1.000000 2.127177 0.000000
v 1.000000 2.127177 0.250000
v 1.000000 2.127177 0.500000
v 1.000000 2.127177 0.750000
v -1.000000 2.127177 0.750000
v -1.000000 2.127177 0.500000
v -1.000000 2.127177 0.250000
v -1.000000 2.127177 0.000000
v -1.000000 2.127177 -0.250000
v -1.000000 2.127177 -0.500000
v -1.000000 2.127177 -0.750000
v -2.155074 -1.000000 0.750000
v -2.155074 -1.000000 0.500000
v -2.155074 -1.000000 0.250000
v -2.155074 -1.000000 0.000000
v -2.155074 -1.000000 -0.250000
v -2.155074 -1.000000 -0.500000
v -2.155074 -1.000000 -0.887607
v -2.155074 2.127177 -0.887607
v -2.155074 2.127177 -0.500000
v -2.155074 2.127177 -0.250000
v -2.155074 2.127177 0.000000
v -2.155074 2.127177 0.250000
v -2.155074 2.127177 0.500000
v -2.155074 2.127177 0.934525
v -0.659791 2.836769 0.250018
v -0.659791 2.836769 0.000018
v -0.659791 2.836769 -0.249982
v 1.190557 2.791392 -0.233996
v 1.212309 2.813148 0.000240
v 1.190513 2.791392 0.236828
v 1.212485 2.463167 -0.180635
v 1.248669 2.468479 0.000058
v 1.212473 2.463167 0.181391
vn -1.0000 -0.0000 -0.0000
vn 0.0006 0.7057 -0.7086
vn 1.0000 -0.0000 -0.0000
vn -0.0328 0.7029 0.7105
vn -0.0000 -1.0000 -0.0000
vn -0.0000 0.9322 0.3620
vn 0.0004 0.8744 -0.4852
vn -0.0000 0.9946 -0.1036
vn -0.0000 0.9994 -0.0351
vn 0.8279 -0.5573 -0.0627
vn 0.3104 -0.0702 0.9480
vn -0.0000 0.9990 0.0449
vn -0.0000 0.9904 0.1381
vn 1.0000 -0.0005 0.0004
vn -0.7071 0.7071 -0.0000
vn 0.8279 -0.5574 0.0626
vn 1.0000 0.0001 -0.0001
vn -0.0000 1.0000 -0.0000
vn -0.0436 -0.0000 0.9991
vn -0.0461 0.0295 0.9985
vn -0.0344 -0.0220 -0.9992
vn -0.0292 0.0295 -0.9991
vn 0.0187 0.9988 -0.0457
vn 0.0187 0.9988 0.0455
vn 0.9870 0.0742 -0.1427
vn 0.9871 0.0738 0.1418
vn 0.3007 -0.0633 -0.9516
vn 0.0028 0.0238 0.9997
vn 0.0044 0.0215 -0.9998
vt 0.605332 0.218750
vt 0.625000 0.218750
vt 0.625000 0.250000
vt 0.605332 0.250000
vt 0.625000 0.500000
vt 0.605332 0.500000
vt 0.605332 0.718750
vt 0.625000 0.718750
vt 0.625000 0.750000
vt 0.605332 0.750000
vt 0.625000 1.000000
vt 0.605332 1.000000
vt 0.125000 0.718750
vt 0.375000 0.718750
vt 0.375000 0.750000
vt 0.125000 0.750000
vt 0.875000 0.718750
vt 0.875000 0.750000
vt 0.875000 0.500000
vt 0.875000 0.531250
vt 0.625000 0.531250
vt 0.875000 0.562500
vt 0.625000 0.562500
vt 0.875000 0.593750
vt 0.625000 0.593750
vt 0.605332 0.625000
vt 0.605332 0.593750
vt 0.625000 0.656250
vt 0.605332 0.656250
vt 0.875000 0.656250
vt 0.875000 0.687500
vt 0.625000 0.687500
vt 0.125000 0.500000
vt 0.375000 0.500000
vt 0.375000 0.531250
vt 0.125000 0.531250
vt 0.375000 0.562500
vt 0.125000 0.562500
vt 0.375000 0.593750
vt 0.125000 0.593750
vt 0.375000 0.625000
vt 0.125000 0.625000
vt 0.375000 0.656250
vt 0.125000 0.656250
vt 0.375000 0.687500
vt 0.125000 0.687500
vt 0.605332 0.531250
vt 0.605332 0.562500
vt 0.625000 0.156250
vt 0.625000 0.125000
vt 0.605332 0.687500
vt 0.605332 0.000000
vt 0.625000 0.000000
vt 0.625000 0.031250
vt 0.605332 0.031250
vt 0.625000 0.062500
vt 0.605332 0.062500
vt 0.625000 0.093750
vt 0.605332 0.093750
vt 0.605332 0.125000
vt 0.605332 0.156250
vt 0.625000 0.187500
vt 0.605332 0.187500
vt 0.375000 0.187500
vt 0.375000 0.218750
vt 0.375000 0.156250
vt 0.375000 0.125000
vt 0.375000 0.093750
vt 0.375000 0.062500
vt 0.375000 0.031250
vt 0.375000 0.000000
vt 0.375000 1.000000
vt 0.375000 0.250000
vt 0.875000 0.625000
vt 0.625000 0.625000
s 0
f 53/1/1 22/2/1 4/3/1 37/4/1
f 37/4/2 4/3/2 8/5/2 38/6/2
f 46/7/3 35/8/3 6/9/3 39/10/3
f 39/10/4 6/9/4 2/11/4 36/12/4
f 15/13/5 23/14/5 5/15/5 1/16/5
f 35/8/6 16/17/6 2/18/6 6/9/6
f 8/5/7 4/19/7 22/20/7 30/21/7
f 30/21/8 22/20/8 21/22/8 31/23/8
f 31/23/9 21/22/9 20/24/9 32/25/9
f 43/26/10 42/27/10 74/27/10 75/26/10
f 33/28/11 44/29/11 76/29/11 73/28/11
f 33/28/12 18/30/12 17/31/12 34/32/12
f 34/32/13 17/31/13 16/17/13 35/8/13
f 3/33/5 7/34/5 29/35/5 9/36/5
f 9/36/5 29/35/5 28/37/5 10/38/5
f 10/38/5 28/37/5 27/39/5 11/40/5
f 11/40/5 27/39/5 26/41/5 12/42/5
f 12/42/5 26/41/5 25/43/5 13/44/5
f 13/44/5 25/43/5 24/45/5 14/46/5
f 14/46/5 24/45/5 23/14/5 15/13/5
f 38/6/14 8/5/14 30/21/14 40/47/14
f 40/47/3 30/21/3 31/23/3 41/48/3
f 41/48/3 31/23/3 32/25/3 42/27/3
f 20/49/15 19/50/15 69/50/15 70/49/15
f 44/29/16 43/26/16 75/26/16 76/29/16
f 44/29/17 33/28/17 34/32/17 45/51/17
f 45/51/3 34/32/3 35/8/3 46/7/3
f 36/52/1 2/53/1 16/54/1 47/55/1
f 47/55/1 16/54/1 17/56/1 48/57/1
f 48/57/1 17/56/1 18/58/1 49/59/1
f 49/59/1 18/58/1 19/50/1 50/60/1
f 50/60/1 19/50/1 20/49/1 51/61/1
f 51/61/1 20/49/1 21/62/1 52/63/1
f 52/63/1 21/62/1 22/2/1 53/1/1
f 10/64/1 52/63/1 53/1/1 9/65/1
f 11/66/1 51/61/1 52/63/1 10/64/1
f 12/67/1 50/60/1 51/61/1 11/66/1
f 13/68/1 49/59/1 50/60/1 12/67/1
f 14/69/1 48/57/1 49/59/1 13/68/1
f 15/70/1 47/55/1 48/57/1 14/69/1
f 1/71/1 36/52/1 47/55/1 15/70/1
f 24/45/18 25/43/18 56/43/18 55/45/18
f 44/29/5 45/51/5 66/51/5 65/29/5
f 23/14/18 24/45/18 55/45/18 54/14/18
f 45/51/5 46/7/5 67/7/5 66/51/5
f 28/37/18 29/35/18 60/35/18 59/37/18
f 29/35/19 40/47/19 61/47/19 60/35/19
f 7/34/3 38/6/3 40/47/3 29/35/3
f 5/15/20 39/10/20 36/12/20 1/72/20
f 23/14/3 46/7/3 39/10/3 5/15/3
f 3/73/21 37/4/21 38/6/21 7/34/21
f 9/65/1 53/1/1 37/4/1 3/73/1
f 55/45/3 66/51/3 67/7/3 54/14/3
f 56/43/3 65/29/3 66/51/3 55/45/3
f 57/41/3 64/26/3 65/29/3 56/43/3
f 58/39/3 63/27/3 64/26/3 57/41/3
f 59/37/3 62/48/3 63/27/3 58/39/3
f 60/35/3 61/47/3 62/48/3 59/37/3
f 43/26/5 44/29/5 65/29/5 64/26/5
f 25/43/18 26/41/18 57/41/18 56/43/18
f 42/27/5 43/26/5 64/26/5 63/27/5
f 26/41/18 27/39/18 58/39/18 57/41/18
f 46/7/22 23/14/22 54/14/22 67/7/22
f 41/48/5 42/27/5 63/27/5 62/48/5
f 27/39/18 28/37/18 59/37/18 58/39/18
f 40/47/5 41/48/5 62/48/5 61/47/5
f 71/25/23 70/24/23 69/74/23 72/75/23
f 72/75/24 69/74/24 68/30/24 73/28/24
f 74/27/25 71/25/25 72/75/25 75/26/25
f 75/26/26 72/75/26 73/28/26 76/29/26
f 42/27/27 32/25/27 71/25/27 74/27/27
f 19/50/15 18/58/15 68/58/15 69/50/15
f 18/30/28 33/28/28 73/28/28 68/30/28
f 32/25/29 20/24/29 70/24/29 71/25/29
