# Blender 4.5.3 LTS
# www.blender.org
mtllib roundedcube.mtl
o Cube
v 1.000000 0.945455 -1.000000
v 1.000000 -1.000000 -1.000000
v 1.000000 0.945455 1.000000
v 1.000000 -1.000000 1.000000
v -1.000000 0.945455 -1.000000
v -1.000000 -1.000000 -1.000000
v -1.000000 0.945455 1.000000
v -1.000000 -1.000000 1.000000
v 0.329987 -1.000000 -1.000000
v -0.336679 -1.000000 -1.000000
v 0.329987 0.945455 1.000000
v -0.336679 0.945455 1.000000
v -0.336679 -1.000000 1.000000
v 0.329987 -1.000000 1.000000
v -0.336679 0.945455 -1.000000
v 0.329987 0.945455 -1.000000
v -1.000000 -1.000000 -0.333333
v -1.000000 -1.000000 0.333333
v 1.000000 0.945455 -0.333333
v 1.000000 0.945455 0.333333
v -1.000000 0.945455 0.333333
v -1.000000 0.945455 -0.333333
v 1.000000 -1.000000 0.333333
v 1.000000 -1.000000 -0.333333
v -0.336679 -1.000000 -0.333333
v -0.336679 -1.000000 0.333333
v 0.329987 -1.000000 -0.333333
v 0.329987 -1.000000 0.333333
v 0.921282 1.000000 -0.924628
v 0.921282 1.000000 0.924628
v -0.927973 1.000000 -0.924628
v -0.927973 1.000000 0.924628
v 1.000000 0.927726 -1.000000
v -1.000000 0.927726 1.000000
v 1.000000 0.927726 1.000000
v -1.000000 0.927726 -1.000000
v -0.336679 0.927726 -1.000000
v 0.329987 0.927726 -1.000000
v 0.329987 0.927726 1.000000
v -0.336679 0.927726 1.000000
v 1.000000 0.927726 -0.333333
v 1.000000 0.927726 0.333333
v -1.000000 0.927726 0.333333
v -1.000000 0.927726 -0.333333
vn -0.3287 0.8860 0.3271
vn -0.0000 -0.0000 1.0000
vn -1.0000 -0.0000 -0.0000
vn -0.0000 -1.0000 -0.0000
vn 1.0000 -0.0000 -0.0000
vn -0.0000 -0.0000 -1.0000
vn 0.3158 0.8942 0.3173
vn -0.0000 0.8101 0.5863
vn -0.0000 0.8101 -0.5863
vn -0.0000 1.0000 -0.0000
vn 0.3158 0.8942 -0.3173
vn 0.5695 0.8220 -0.0000
vn -0.3287 0.8860 -0.3271
vn -0.6037 0.7972 -0.0000
vt 0.792085 0.666667
vt 0.875000 0.666667
vt 0.875000 0.750000
vt 0.792085 0.750000
vt 0.615966 0.917085
vt 0.625000 0.917085
vt 0.625000 1.000000
vt 0.615966 1.000000
vt 0.615966 0.166667
vt 0.625000 0.166667
vt 0.625000 0.250000
vt 0.615966 0.250000
vt 0.291248 0.666667
vt 0.375000 0.666667
vt 0.375000 0.750000
vt 0.291248 0.750000
vt 0.615966 0.666667
vt 0.625000 0.666667
vt 0.625000 0.750000
vt 0.615966 0.750000
vt 0.615966 0.416248
vt 0.625000 0.416248
vt 0.625000 0.500000
vt 0.615966 0.500000
vt 0.625000 0.332915
vt 0.615966 0.332915
vt 0.125000 0.666667
vt 0.207915 0.666667
vt 0.207915 0.750000
vt 0.125000 0.750000
vt 0.625000 0.833752
vt 0.615966 0.833752
vt 0.708752 0.666667
vt 0.708752 0.750000
vt 0.708752 0.500000
vt 0.792085 0.500000
vt 0.792085 0.583333
vt 0.708752 0.583333
vt 0.625000 0.583333
vt 0.207915 0.500000
vt 0.291248 0.500000
vt 0.291248 0.583333
vt 0.207915 0.583333
vt 0.125000 0.500000
vt 0.125000 0.583333
vt 0.615966 0.583333
vt 0.375000 0.500000
vt 0.375000 0.583333
vt 0.615966 0.000000
vt 0.625000 0.000000
vt 0.625000 0.083333
vt 0.615966 0.083333
vt 0.875000 0.500000
vt 0.875000 0.583333
vt 0.375000 0.083333
vt 0.375000 0.166667
vt 0.375000 0.000000
vt 0.375000 0.833752
vt 0.375000 0.917085
vt 0.375000 0.332915
vt 0.375000 0.416248
vt 0.375000 0.250000
vt 0.375000 1.000000
s 0
usemtl Material
f 32/1/1 21/2/1 7/3/1 12/4/1
f 40/5/2 12/6/2 7/7/2 34/8/2
f 44/9/3 22/10/3 5/11/3 36/12/3
f 28/13/4 23/14/4 4/15/4 14/16/4
f 42/17/5 20/18/5 3/19/5 35/20/5
f 38/21/6 16/22/6 1/23/6 33/24/6
f 36/12/6 5/11/6 15/25/6 37/26/6
f 37/26/6 15/25/6 16/22/6 38/21/6
f 18/27/4 26/28/4 13/29/4 8/30/4
f 26/28/4 28/13/4 14/16/4 13/29/4
f 35/20/2 3/19/2 11/31/2 39/32/2
f 39/32/2 11/31/2 12/6/2 40/5/2
f 20/18/7 30/33/7 11/34/7 3/19/7
f 30/33/8 32/1/8 12/4/8 11/34/8
f 16/35/9 15/36/9 31/37/9 29/38/9
f 29/38/10 31/37/10 32/1/10 30/33/10
f 1/23/11 16/35/11 29/38/11 19/39/11
f 19/39/12 29/38/12 30/33/12 20/18/12
f 10/40/4 9/41/4 27/42/4 25/43/4
f 25/43/4 27/42/4 28/13/4 26/28/4
f 6/44/4 10/40/4 25/43/4 17/45/4
f 17/45/4 25/43/4 26/28/4 18/27/4
f 33/24/5 1/23/5 19/39/5 41/46/5
f 41/46/5 19/39/5 20/18/5 42/17/5
f 9/41/4 2/47/4 24/48/4 27/42/4
f 27/42/4 24/48/4 23/14/4 28/13/4
f 34/49/3 7/50/3 21/51/3 43/52/3
f 43/52/3 21/51/3 22/10/3 44/9/3
f 15/36/13 5/53/13 22/54/13 31/37/13
f 31/37/14 22/54/14 21/2/14 32/1/14
f 18/55/3 43/52/3 44/9/3 17/56/3
f 8/57/3 34/49/3 43/52/3 18/55/3
f 24/48/5 41/46/5 42/17/5 23/14/5
f 2/47/5 33/24/5 41/46/5 24/48/5
f 14/58/2 39/32/2 40/5/2 13/59/2
f 4/15/2 35/20/2 39/32/2 14/58/2
f 10/60/6 37/26/6 38/21/6 9/61/6
f 6/62/6 36/12/6 37/26/6 10/60/6
f 9/61/6 38/21/6 33/24/6 2/47/6
f 23/14/5 42/17/5 35/20/5 4/15/5
f 17/56/3 44/9/3 36/12/3 6/62/3
f 13/59/2 40/5/2 34/8/2 8/63/2
