# Blender 4.5.3 LTS
# www.blender.org
mtllib shipHalf.mtl
o Cube
v 1.088032 1.000000 -1.088032
v 0.610513 -0.969248 -0.610513
v 1.088032 1.000000 1.088032
v 0.610513 -0.969248 0.610513
v -1.088032 1.000000 -1.088032
v -0.610513 -0.969248 -0.610513
v -1.088032 1.000000 1.088032
v -0.610513 -0.969248 0.610513
v 1.174044 0.666667 -1.174044
v 1.000000 0.333333 -1.000000
v 1.038501 -0.000000 -1.038501
v 1.000000 -0.333333 -1.000000
v 0.815489 -0.697418 -0.815489
v -0.815489 -0.697418 0.815489
v -1.000000 -0.333333 1.000000
v -1.038501 0.000000 1.038501
v -1.000000 0.333333 1.000000
v -1.174044 0.666667 1.174044
v 1.174044 0.666667 1.174044
v 1.000000 0.333333 1.000000
v 1.038501 -0.000000 1.038501
v 1.000000 -0.333333 1.000000
v 0.815489 -0.697418 0.815489
v -1.174044 0.666667 -1.174044
v -1.000000 0.333333 -1.000000
v -1.038501 -0.000000 -1.038501
v -1.000000 -0.333333 -1.000000
v -0.815489 -0.697418 -0.815489
v -3.457988 1.333333 -1.088032
v -2.980468 -0.531013 -0.610513
v -3.457988 1.333333 1.088032
v -2.980468 -0.531013 0.610513
v -3.185445 -0.364085 0.815489
v -3.369956 0.000000 1.000000
v -3.408456 0.333333 1.038501
v -3.529581 0.666667 1.000000
v -3.915847 1.000000 0.934783
v -3.915847 1.000000 -0.934783
v -3.529581 0.666667 -1.000000
v -3.408456 0.333333 -1.038501
v -3.369956 -0.000000 -1.000000
v -3.185445 -0.364085 -0.815489
v 3.210696 1.333333 -1.088032
v 2.733176 -0.635915 -0.610513
v 3.210696 1.333333 1.088032
v 2.733176 -0.635915 0.610513
v 3.611531 1.000000 -1.000000
v 3.324114 0.666667 -1.000000
v 3.161164 0.333333 -1.038501
v 3.122663 0.000000 -1.000000
v 2.938153 -0.364085 -0.815489
v 3.611531 1.000000 1.000000
v 3.324114 0.666667 1.000000
v 3.161164 0.333333 1.038501
v 3.122663 0.000000 1.000000
v 2.938153 -0.364085 0.815489
v 4.466928 1.553597 -0.772594
v 4.515312 1.543665 0.820780
v 4.377465 1.380645 -0.544458
v 4.412106 1.373534 0.596356
v 5.433655 1.691616 -0.147014
v 5.440398 1.690232 0.075067
v 5.390090 1.603378 -0.125548
v 5.395578 1.602251 0.055186
v -4.532394 1.756751 -0.412147
v -4.532394 1.756751 0.412147
v -4.499048 1.630485 0.378800
v -4.499048 1.630484 -0.378800
v -5.220698 2.236233 0.070965
v -5.220698 2.236233 -0.070965
v -5.214956 2.214492 0.065223
v -5.214956 2.214492 -0.065223
v 6.010625 1.594651 -0.211411
v 6.022132 1.592289 0.167527
v 5.981681 1.542186 -0.195515
v 5.992257 1.540015 0.152764
vn -0.0000 1.0000 -0.0000
vn -0.0000 0.2499 0.9683
vn -0.0719 -0.2193 0.9730
vn -0.0000 -1.0000 -0.0000
vn -0.0177 0.1180 -0.9929
vn -0.0000 0.2499 -0.9683
vn -0.0000 -0.6021 -0.7984
vn -0.0000 -0.4520 -0.8920
vn -0.0000 -0.1147 -0.9934
vn -0.0000 0.1147 -0.9934
vn -0.0000 -0.4628 -0.8864
vn 0.0769 -0.3014 -0.9504
vn 0.0349 0.0224 -0.9991
vn 0.1015 -0.6466 0.7560
vn 0.0755 -0.4809 0.8735
vn 0.1551 -0.9879 -0.0000
vn -0.0719 -0.2193 -0.9730
vn 0.0159 0.1167 0.9930
vn -0.1197 -0.7352 -0.6672
vn -0.0540 -0.0565 -0.9969
vn -0.0164 -0.1166 0.9930
vn -0.0000 -0.6021 0.7984
vn -0.0000 -0.4520 0.8920
vn -0.0000 -0.1147 0.9934
vn -0.0000 0.1147 0.9934
vn -0.0000 -0.4628 0.8864
vn -0.7341 -0.6790 -0.0000
vn -0.6315 -0.7754 -0.0000
vn -0.8920 -0.4520 -0.0000
vn -0.9934 -0.1147 -0.0000
vn -0.9399 -0.3415 -0.0000
vn -0.6533 -0.7571 -0.0000
vn 0.0159 0.1167 -0.9930
vn -0.1818 -0.9833 -0.0000
vn -0.0164 -0.1166 -0.9930
vn -0.0672 -0.4779 -0.8758
vn 0.1393 0.9903 -0.0000
vn -0.1197 -0.7352 0.6672
vn -0.0540 -0.0565 0.9969
vn -0.0672 -0.4779 0.8758
vn 0.4143 -0.2850 -0.8644
vn 0.7984 -0.6021 -0.0000
vn 0.8920 -0.4520 -0.0000
vn 0.9934 -0.1147 -0.0000
vn 0.8984 -0.4392 -0.0000
vn 0.7573 -0.6530 -0.0000
vn -0.1551 0.9879 -0.0000
vn 0.0349 0.0224 0.9991
vn 0.0183 -0.1168 -0.9930
vn 0.0769 -0.3014 0.9504
vn 0.0755 -0.4809 -0.8735
vn -0.0177 0.1180 0.9929
vn 0.1015 -0.6466 -0.7560
vn 0.0183 -0.1168 0.9930
vn 0.4733 -0.7334 0.4880
vn -0.1659 0.9861 0.0047
vn 0.3676 -0.3237 0.8718
vn 0.4340 -0.9009 -0.0068
vn -0.1032 -0.9947 -0.0031
vn -0.1481 0.9889 0.0107
vn 0.2198 -0.9755 -0.0128
vn 0.4183 -0.7298 -0.5407
vn -0.5998 -0.3486 -0.7202
vn 0.3666 0.9304 -0.0000
vn -0.5277 0.1478 0.8365
vn -0.5277 0.1478 -0.8365
vn -0.9668 -0.2554 -0.0000
vn -0.5998 -0.3486 0.7202
vn -0.6321 -0.7749 -0.0000
vn 0.5716 0.8205 -0.0000
vn 0.8714 -0.4897 -0.0295
vn -0.1372 -0.1876 -0.9726
vn -0.1768 -0.1462 0.9733
vn 0.1659 0.9861 0.0011
vt 0.625000 0.500000
vt 0.875000 0.500000
vt 0.875000 0.750000
vt 0.625000 0.750000
vt 0.583333 0.750000
vt 0.625000 1.000000
vt 0.583333 1.000000
vt 0.541667 1.000000
vt 0.125000 0.500000
vt 0.375000 0.500000
vt 0.375000 0.750000
vt 0.125000 0.750000
vt 0.500000 0.500000
vt 0.541667 0.500000
vt 0.583333 0.250000
vt 0.625000 0.250000
vt 0.583333 0.500000
vt 0.375000 0.250000
vt 0.416667 0.250000
vt 0.416667 0.500000
vt 0.458333 0.250000
vt 0.458333 0.500000
vt 0.500000 0.250000
vt 0.541667 0.250000
vt 0.416667 0.750000
vt 0.458333 0.750000
vt 0.500000 1.000000
vt 0.458333 1.000000
vt 0.416667 1.000000
vt 0.375000 1.000000
vt 0.500000 0.750000
vt 0.541667 0.750000
vt 0.583333 0.000000
vt 0.375000 0.000000
vt 0.416667 0.000000
vt 0.458333 0.000000
vt 0.500000 0.000000
vt 0.541667 0.000000
vt 0.625000 0.000000
s 0
usemtl Material
f 1/1/1 5/2/1 7/3/1 3/4/1
f 19/5/2 3/4/2 7/6/2 18/7/2
f 17/8/3 18/7/3 37/7/3 36/8/3
f 6/9/4 2/10/4 4/11/4 8/12/4
f 11/13/5 10/14/5 48/14/5 49/13/5
f 24/15/6 5/16/6 1/1/6 9/17/6
f 6/18/7 28/19/7 13/20/7 2/10/7
f 28/19/8 27/21/8 12/22/8 13/20/8
f 27/21/9 26/23/9 11/13/9 12/22/9
f 26/23/10 25/24/10 10/14/10 11/13/10
f 25/24/11 24/15/11 9/17/11 10/14/11
f 10/14/12 9/17/12 47/17/12 48/14/12
f 9/17/13 1/1/13 43/1/13 47/17/13
f 23/25/14 4/11/14 46/11/14 56/25/14
f 22/26/15 23/25/15 56/25/15 55/26/15
f 4/11/16 2/10/16 44/10/16 46/11/16
f 24/15/17 25/24/17 39/24/17 38/15/17
f 16/27/18 17/8/18 36/8/18 35/27/18
f 28/19/19 6/18/19 30/18/19 42/19/19
f 5/16/20 24/15/20 38/15/20 29/16/20
f 15/28/21 16/27/21 35/27/21 34/28/21
f 4/11/22 23/25/22 14/29/22 8/30/22
f 23/25/23 22/26/23 15/28/23 14/29/23
f 22/26/24 21/31/24 16/27/24 15/28/24
f 21/31/25 20/32/25 17/8/25 16/27/25
f 20/32/26 19/5/26 18/7/26 17/8/26
f 38/15/27 37/33/27 67/33/27 68/15/27
f 32/34/28 33/35/28 42/19/28 30/18/28
f 33/35/29 34/36/29 41/21/29 42/19/29
f 34/36/30 35/37/30 40/23/30 41/21/30
f 35/37/31 36/38/31 39/24/31 40/23/31
f 36/38/32 37/33/32 38/15/32 39/24/32
f 25/24/33 26/23/33 40/23/33 39/24/33
f 6/9/34 8/12/34 32/12/34 30/9/34
f 26/23/35 27/21/35 41/21/35 40/23/35
f 27/21/36 28/19/36 42/19/36 41/21/36
f 7/3/37 5/2/37 29/2/37 31/3/37
f 8/30/38 14/29/38 33/29/38 32/30/38
f 18/7/39 7/6/39 31/6/39 37/7/39
f 14/29/40 15/28/40 34/28/40 33/29/40
f 47/17/41 43/1/41 57/1/41 59/17/41
f 44/10/42 51/20/42 56/25/42 46/11/42
f 51/20/43 50/22/43 55/26/43 56/25/43
f 50/22/44 49/13/44 54/31/44 55/26/44
f 49/13/45 48/14/45 53/32/45 54/31/45
f 48/14/46 47/17/46 52/5/46 53/32/46
f 1/1/47 3/4/47 45/4/47 43/1/47
f 3/4/48 19/5/48 52/5/48 45/4/48
f 12/22/49 11/13/49 49/13/49 50/22/49
f 19/5/50 20/32/50 53/32/50 52/5/50
f 13/20/51 12/22/51 50/22/51 51/20/51
f 20/32/52 21/31/52 54/31/52 53/32/52
f 2/10/53 13/20/53 51/20/53 44/10/53
f 21/31/54 22/26/54 55/26/54 54/31/54
f 58/4/55 60/5/55 64/5/55 62/4/55
f 43/1/56 45/4/56 58/4/56 57/1/56
f 45/4/57 52/5/57 60/5/57 58/4/57
f 52/5/58 47/17/58 59/17/58 60/5/58
f 64/5/59 63/17/59 75/17/59 76/5/59
f 57/1/60 58/4/60 62/4/60 61/1/60
f 60/5/61 59/17/61 63/17/61 64/5/61
f 59/17/62 57/1/62 61/1/62 63/17/62
f 65/16/63 68/15/63 72/15/63 70/16/63
f 31/3/64 29/2/64 65/2/64 66/3/64
f 37/7/65 31/6/65 66/6/65 67/7/65
f 29/16/66 38/15/66 68/15/66 65/16/66
f 71/33/67 69/39/67 70/16/67 72/15/67
f 67/7/68 66/6/68 69/6/68 71/7/68
f 68/15/69 67/33/69 71/33/69 72/15/69
f 66/3/70 65/2/70 70/2/70 69/3/70
f 75/17/71 73/1/71 74/4/71 76/5/71
f 63/17/72 61/1/72 73/1/72 75/17/72
f 62/4/73 64/5/73 76/5/73 74/4/73
f 61/1/74 62/4/74 74/4/74 73/1/74
