# Blender 4.5.3 LTS
# www.blender.org
mtllib ufo.mtl
o Cube
v 0.820791 0.342779 -0.770040
v 0.945662 -0.375767 -0.888232
v 0.820791 0.342779 0.808487
v 0.945662 -0.375767 0.930481
v -0.820055 0.342779 -0.770040
v -0.944853 -0.375767 -0.888232
v -0.820055 0.342779 0.808487
v -0.944853 -0.375767 0.930481
v -1.167549 -0.375767 0.001378
v 0.000026 -0.375767 -1.166198
v 1.220080 0.000000 -1.147794
v -1.219104 0.000000 1.198749
v 1.220080 0.000000 1.198749
v -1.219104 0.000000 -1.147794
v 0.000040 0.342779 1.015465
v 1.013420 0.342779 0.002085
v 0.000026 -0.375767 1.168953
v -1.013341 0.342779 0.002085
v 0.000040 0.342779 -1.011296
v 1.167602 -0.375767 0.001378
v -0.000000 0.000000 -1.506431
v 1.506431 0.000000 0.000000
v 0.000004 -0.375767 0.000196
v -1.506431 0.000000 0.000000
v -0.000000 0.000000 1.506431
v -0.000000 0.342779 0.000000
v -1.167549 -0.375767 0.585165
v -0.583762 -0.375767 -1.166198
v 1.171996 -0.242617 -1.102359
v -1.219104 0.204165 1.198749
v 1.171996 -0.242617 1.151697
v -1.171051 -0.242617 -1.102359
v -0.506651 0.342779 1.015465
v 1.013420 0.342779 0.508775
v 0.583814 -0.375767 1.168953
v -1.013341 0.342779 -0.504606
v 0.506730 0.342779 -1.011296
v 1.167602 -0.375767 -0.582410
v -1.167549 -0.375767 -0.582410
v 0.583814 -0.375767 -1.166198
v 1.220080 0.204165 -1.147794
v -1.171051 -0.242617 1.151697
v 1.220080 0.204165 1.198749
v -1.219104 0.204165 -1.147794
v 0.506730 0.342779 1.015465
v 1.013420 0.342779 -0.504606
v -0.583762 -0.375767 1.168953
v -1.013341 0.342779 0.508775
v -0.506651 0.342779 -1.011296
v 1.167602 -0.375767 0.585165
v 0.753215 0.000000 -1.506431
v -0.753216 0.000000 -1.506431
v 0.000004 -0.242617 -1.446861
v -0.000000 0.204165 -1.506431
v 1.506431 0.000000 0.753215
v 1.506431 0.000000 -0.753215
v 1.447061 -0.242617 0.000196
v 1.506431 0.204165 0.000000
v 0.000004 -0.375767 0.723724
v 0.000004 -0.375767 -0.723333
v -0.723525 -0.375767 0.000196
v 0.723532 -0.375767 0.000196
v -1.506431 0.000000 -0.753215
v -1.506431 0.000000 0.753215
v -1.447053 -0.242617 0.000196
v -1.506431 0.204165 0.000000
v -0.753216 0.000000 1.506431
v 0.753215 0.000000 1.506431
v 0.000004 -0.242617 1.447253
v -0.000000 0.204165 1.506431
v -0.000000 0.277227 0.375513
v -0.000000 0.342779 -0.375513
v 0.375513 0.277227 0.000000
v -0.375513 0.342779 0.000000
v -0.375513 0.277227 -0.375513
v 0.375513 0.277227 -0.375513
v 0.375513 0.277227 0.375513
v 0.753215 0.204165 1.506431
v 0.723532 -0.242617 1.447253
v -0.723525 -0.242617 1.447253
v -1.506431 0.204165 0.753215
v -1.447053 -0.242617 0.723724
v -1.447053 -0.242617 -0.723333
v 0.723532 -0.375767 -0.723333
v -0.723525 -0.375767 -0.723333
v -0.723525 -0.375767 0.723724
v 1.506431 0.204165 -0.753215
v 1.447061 -0.242617 -0.723333
v 1.447061 -0.242617 0.723724
v -0.753216 0.204165 -1.506431
v -0.723525 -0.242617 -1.446861
v 0.723532 -0.242617 -1.446861
v 0.753215 0.204165 -1.506431
v 1.506431 0.204165 0.753215
v 0.723532 -0.375767 0.723724
v -1.506431 0.204165 -0.753215
v -0.753216 0.204165 1.506431
v -0.375513 0.342779 0.375513
v 0.820791 0.720729 -0.770040
v 0.820791 0.720729 0.808487
v -0.820055 0.720729 -0.770040
v -0.820055 0.720729 0.808487
v 0.000040 0.720729 1.015465
v 1.013420 0.720729 0.002085
v -1.013341 0.720729 0.002085
v 0.000040 0.720729 -1.011296
v -0.506651 0.720729 1.015465
v 1.013420 0.720729 0.508775
v -1.013341 0.720729 -0.504606
v 0.506730 0.720729 -1.011296
v 0.506730 0.720729 1.015465
v 1.013420 0.720729 -0.504606
v -1.013341 0.720729 0.508775
v -0.506651 0.720729 -1.011296
v 0.671817 1.051742 -0.629100
v 0.671817 1.051742 0.662880
v -0.671170 1.051742 -0.629100
v -0.671170 1.051742 0.662880
v 0.000055 1.051742 0.832287
v 0.829479 1.051742 0.002862
v -0.829370 1.051742 0.002862
v 0.000055 1.051742 -0.826562
v -0.414657 1.051742 0.832287
v 0.829479 1.051742 0.417575
v -0.829370 1.051742 -0.411850
v 0.414767 1.051742 -0.826562
v 0.414767 1.051742 0.832287
v 0.829479 1.051742 -0.411850
v -0.829370 1.051742 0.417575
v -0.414657 1.051742 -0.826562
v 0.295321 1.277632 -0.272910
v 0.295321 1.277632 0.294896
v -0.294901 1.277632 -0.272910
v -0.294901 1.277632 0.294896
v 0.000092 1.277632 0.369347
v 0.364611 1.277632 0.004828
v -0.364427 1.277632 0.004828
v 0.000092 1.277632 -0.359691
v -0.182167 1.277632 0.369347
v 0.364611 1.277632 0.187088
v -0.364427 1.277632 -0.177431
v 0.182352 1.277632 -0.359691
v 0.182352 1.277632 0.369347
v 0.364611 1.277632 -0.177431
v -0.364427 1.277632 0.187088
v -0.182167 1.277632 -0.359691
v 0.000117 1.321991 0.006132
v 0.000117 1.321991 0.006132
v 0.000117 1.321991 0.006132
v 0.000117 1.321991 0.006132
v 0.000117 1.321991 0.006132
v 0.000117 1.321991 0.006132
v 0.000117 1.321991 0.006132
v 0.000117 1.321991 0.006132
v 0.000117 1.321991 0.006132
v 0.000117 1.321991 0.006132
v 0.000117 1.321991 0.006132
v 0.000117 1.321991 0.006132
v 0.000117 1.321991 0.006132
v 0.000117 1.321991 0.006132
v 0.000117 1.321991 0.006132
v 0.000117 1.321991 0.006132
vn -0.0000 1.0000 -0.0000
vn -0.1357 0.9692 0.2055
vn -0.1993 0.9691 -0.1451
vn -0.0000 -1.0000 -0.0000
vn 0.2067 0.9693 0.1328
vn 0.1507 0.9689 -0.1962
vn 0.5882 -0.2600 -0.7658
vn -0.0000 -0.2384 -0.9712
vn -0.0000 0.9630 -0.2696
vn 0.8118 -0.2621 0.5218
vn 0.9713 -0.2377 -0.0000
vn 0.2707 0.9627 -0.0000
vn -0.7804 -0.2610 -0.5683
vn -0.9713 -0.2377 -0.0000
vn -0.2706 0.9627 -0.0000
vn -0.5319 -0.2615 0.8054
vn -0.0000 -0.2370 0.9715
vn -0.0000 0.9624 0.2717
vn -0.0000 0.9948 -0.1019
vn 0.1720 0.9851 -0.0000
vn 0.0585 0.9955 -0.0740
vn -0.0866 0.9925 -0.0866
vn -0.0740 0.9955 0.0589
vn 0.0777 0.9940 0.0777
vn -0.1022 0.9948 -0.0000
vn -0.0776 0.9940 0.0776
vn 0.0740 0.9955 0.0590
vn -0.0742 0.9945 -0.0742
vn 0.0866 0.9925 0.0866
vn -0.0000 -0.0000 1.0000
vn 0.5503 -0.0000 0.8350
vn 0.1355 0.9692 0.2056
vn -0.0000 -0.9021 0.4316
vn 0.2176 -0.9185 0.3302
vn 0.5311 -0.2616 0.8059
vn -0.2179 -0.9185 0.3300
vn -1.0000 -0.0000 -0.0000
vn -0.8404 -0.0000 0.5420
vn -0.2065 0.9693 0.1332
vn -0.4301 -0.9028 -0.0000
vn -0.3317 -0.9188 0.2139
vn -0.8110 -0.2621 0.5230
vn -0.3200 -0.9183 -0.2330
vn 1.0000 -0.0000 -0.0000
vn 0.8093 -0.0000 -0.5873
vn 0.1995 0.9691 -0.1448
vn 0.4301 -0.9028 -0.0000
vn 0.3203 -0.9183 -0.2325
vn 0.7813 -0.2610 -0.5670
vn 0.3320 -0.9188 0.2134
vn -0.0000 -0.0000 -1.0000
vn -0.6100 -0.0000 -0.7924
vn -0.1509 0.9689 -0.1961
vn -0.0000 -0.9035 -0.4286
vn -0.2423 -0.9177 -0.3147
vn -0.5890 -0.2600 -0.7652
vn 0.2419 -0.9178 -0.3150
vn 0.6092 -0.0000 -0.7930
vn 0.8412 -0.0000 0.5407
vn -0.8084 -0.0000 -0.5887
vn -0.5511 -0.0000 0.8344
vn 0.0740 0.9963 -0.0434
vn -0.8412 -0.0000 -0.5407
vn 0.8084 -0.0000 0.5887
vn -0.6092 -0.0000 0.7930
vn -0.0000 0.4873 -0.8732
vn -0.0000 -0.4842 -0.8750
vn 0.4687 0.5238 0.7113
vn -0.8741 -0.4857 -0.0000
vn 0.6896 0.5234 -0.5005
vn 0.8741 -0.4858 -0.0000
vn -0.7154 0.5247 0.4614
vn -0.0000 -0.4873 0.8732
vn -0.4694 0.5238 0.7108
vn -0.5203 0.5219 -0.6760
vn -0.7161 -0.5247 -0.4603
vn 0.8741 0.4857 -0.0000
vn 0.6888 -0.5234 0.5016
vn -0.8741 0.4858 -0.0000
vn -0.5196 -0.5219 0.6765
vn -0.3375 -0.9160 -0.2169
vn 0.4371 0.8994 -0.0000
vn 0.3253 -0.9154 0.2369
vn -0.4370 0.8995 -0.0000
vn -0.2460 -0.9149 0.3202
vn -0.0000 0.9002 -0.4355
vn -0.0000 -0.8987 -0.4385
vn 0.2212 0.9156 0.3357
vn -0.4371 -0.8994 -0.0000
vn 0.3257 0.9155 -0.2363
vn 0.4370 -0.8995 -0.0000
vn -0.3372 0.9160 0.2175
vn -0.0000 -0.9002 0.4355
vn -0.2216 0.9156 0.3355
vn -0.2463 0.9148 -0.3200
vn 0.1208 -0.9927 -0.0000
vn -0.0916 0.9940 0.0591
vn -0.0000 -0.9927 0.1204
vn -0.0602 0.9940 0.0912
vn -0.0671 0.9939 -0.0871
vn -0.0000 -0.9926 -0.1212
vn -0.0917 -0.9940 -0.0589
vn 0.1208 0.9927 -0.0000
vn 0.0885 -0.9940 0.0644
vn -0.1208 0.9927 -0.0000
vn -0.0670 -0.9939 0.0872
vn -0.0000 0.9927 -0.1204
vn 0.0601 0.9940 0.0912
vn -0.1208 -0.9927 -0.0000
vn 0.0886 0.9940 -0.0643
vt 0.812500 0.687500
vt 0.875000 0.687500
vt 0.875000 0.750000
vt 0.812500 0.750000
vt 0.562500 0.937500
vt 0.625000 0.937500
vt 0.625000 1.000000
vt 0.562500 1.000000
vt 0.562500 0.187500
vt 0.625000 0.187500
vt 0.625000 0.250000
vt 0.562500 0.250000
vt 0.312500 0.687500
vt 0.375000 0.687500
vt 0.375000 0.750000
vt 0.312500 0.750000
vt 0.562500 0.687500
vt 0.625000 0.687500
vt 0.625000 0.750000
vt 0.562500 0.750000
vt 0.562500 0.437500
vt 0.625000 0.437500
vt 0.625000 0.500000
vt 0.562500 0.500000
vt 0.437500 0.437500
vt 0.500000 0.437500
vt 0.500000 0.500000
vt 0.437500 0.500000
vt 0.437500 0.312500
vt 0.500000 0.312500
vt 0.500000 0.375000
vt 0.437500 0.375000
vt 0.562500 0.312500
vt 0.625000 0.312500
vt 0.625000 0.375000
vt 0.562500 0.375000
vt 0.437500 0.687500
vt 0.500000 0.687500
vt 0.500000 0.750000
vt 0.437500 0.750000
vt 0.437500 0.562500
vt 0.500000 0.562500
vt 0.500000 0.625000
vt 0.437500 0.625000
vt 0.562500 0.562500
vt 0.625000 0.562500
vt 0.625000 0.625000
vt 0.562500 0.625000
vt 0.187500 0.687500
vt 0.250000 0.687500
vt 0.250000 0.750000
vt 0.187500 0.750000
vt 0.187500 0.562500
vt 0.250000 0.562500
vt 0.250000 0.625000
vt 0.187500 0.625000
vt 0.312500 0.562500
vt 0.375000 0.562500
vt 0.375000 0.625000
vt 0.312500 0.625000
vt 0.437500 0.187500
vt 0.500000 0.187500
vt 0.500000 0.250000
vt 0.437500 0.250000
vt 0.437500 0.062500
vt 0.500000 0.062500
vt 0.500000 0.125000
vt 0.437500 0.125000
vt 0.562500 0.062500
vt 0.625000 0.062500
vt 0.625000 0.125000
vt 0.562500 0.125000
vt 0.437500 0.937500
vt 0.500000 0.937500
vt 0.500000 1.000000
vt 0.437500 1.000000
vt 0.437500 0.812500
vt 0.500000 0.812500
vt 0.500000 0.875000
vt 0.437500 0.875000
vt 0.562500 0.812500
vt 0.625000 0.812500
vt 0.625000 0.875000
vt 0.562500 0.875000
vt 0.687500 0.687500
vt 0.750000 0.687500
vt 0.750000 0.750000
vt 0.687500 0.750000
vt 0.687500 0.562500
vt 0.750000 0.562500
vt 0.750000 0.625000
vt 0.687500 0.625000
vt 0.812500 0.562500
vt 0.875000 0.562500
vt 0.875000 0.625000
vt 0.812500 0.625000
vt 0.750000 0.500000
vt 0.812500 0.500000
vt 0.875000 0.500000
vt 0.687500 0.500000
vt 0.375000 0.812500
vt 0.375000 0.875000
vt 0.375000 0.937500
vt 0.375000 1.000000
vt 0.500000 0.000000
vt 0.562500 0.000000
vt 0.625000 0.000000
vt 0.375000 0.062500
vt 0.375000 0.125000
vt 0.375000 0.000000
vt 0.437500 0.000000
vt 0.375000 0.187500
vt 0.375000 0.250000
vt 0.250000 0.500000
vt 0.312500 0.500000
vt 0.375000 0.500000
vt 0.125000 0.562500
vt 0.125000 0.625000
vt 0.125000 0.500000
vt 0.187500 0.500000
vt 0.125000 0.687500
vt 0.125000 0.750000
vt 0.375000 0.312500
vt 0.375000 0.375000
vt 0.375000 0.437500
s 0
usemtl Material
f 98/1/1 48/2/1 7/3/1 33/4/1
f 97/5/2 33/6/2 7/7/2 30/8/2
f 96/9/3 36/10/3 5/11/3 44/12/3
f 95/13/4 50/14/4 4/15/4 35/16/4
f 94/17/5 34/18/5 3/19/5 43/20/5
f 93/21/6 37/22/6 1/23/6 41/24/6
f 92/25/7 51/26/7 11/27/7 29/28/7
f 91/29/8 52/30/8 21/31/8 53/32/8
f 90/33/9 49/34/9 19/35/9 54/36/9
f 89/37/10 55/38/10 13/39/10 31/40/10
f 88/41/11 56/42/11 22/43/11 57/44/11
f 87/45/12 46/46/12 16/47/12 58/48/12
f 86/49/4 59/50/4 17/51/4 47/52/4
f 85/53/4 60/54/4 23/55/4 61/56/4
f 84/57/4 38/58/4 20/59/4 62/60/4
f 83/61/13 63/62/13 14/63/13 32/64/13
f 82/65/14 64/66/14 24/67/14 65/68/14
f 81/69/15 48/70/15 18/71/15 66/72/15
f 80/73/16 67/74/16 12/75/16 42/76/16
f 79/77/17 68/78/17 25/79/17 69/80/17
f 78/81/18 45/82/18 15/83/18 70/84/18
f 77/85/19 71/86/19 15/87/19 45/88/19
f 76/89/20 72/90/20 26/91/20 73/92/20
f 75/93/21 36/94/21 18/95/21 74/96/21
f 72/90/22 75/93/22 74/96/22 26/91/22
f 19/97/23 49/98/23 75/93/23 72/90/23
f 49/98/24 5/99/24 36/94/24 75/93/24
f 46/46/25 76/89/25 73/92/25 16/47/25
f 1/23/26 37/100/26 76/89/26 46/46/26
f 37/100/27 19/97/27 72/90/27 76/89/27
f 34/18/28 77/85/28 45/88/28 3/19/28
f 16/47/25 73/92/25 77/85/25 34/18/25
f 73/92/29 26/91/29 71/86/29 77/85/29
f 68/78/30 78/81/30 70/84/30 25/79/30
f 13/39/31 43/20/31 78/81/31 68/78/31
f 43/20/32 3/19/32 45/82/32 78/81/32
f 35/101/33 79/77/33 69/80/33 17/102/33
f 4/15/34 31/40/34 79/77/34 35/101/34
f 31/40/35 13/39/35 68/78/35 79/77/35
f 47/103/36 80/73/36 42/76/36 8/104/36
f 17/102/33 69/80/33 80/73/33 47/103/33
f 69/80/17 25/79/17 67/74/17 80/73/17
f 64/66/37 81/69/37 66/72/37 24/67/37
f 12/105/38 30/106/38 81/69/38 64/66/38
f 30/106/39 7/107/39 48/70/39 81/69/39
f 27/108/40 82/65/40 65/68/40 9/109/40
f 8/110/41 42/111/41 82/65/41 27/108/41
f 42/111/42 12/105/42 64/66/42 82/65/42
f 39/112/43 83/61/43 32/64/43 6/113/43
f 9/109/40 65/68/40 83/61/40 39/112/40
f 65/68/14 24/67/14 63/62/14 83/61/14
f 60/54/4 84/57/4 62/60/4 23/55/4
f 10/114/4 40/115/4 84/57/4 60/54/4
f 40/115/4 2/116/4 38/58/4 84/57/4
f 39/117/4 85/53/4 61/56/4 9/118/4
f 6/119/4 28/120/4 85/53/4 39/117/4
f 28/120/4 10/114/4 60/54/4 85/53/4
f 27/121/4 86/49/4 47/52/4 8/122/4
f 9/118/4 61/56/4 86/49/4 27/121/4
f 61/56/4 23/55/4 59/50/4 86/49/4
f 56/42/44 87/45/44 58/48/44 22/43/44
f 11/27/45 41/24/45 87/45/45 56/42/45
f 41/24/46 1/23/46 46/46/46 87/45/46
f 38/58/47 88/41/47 57/44/47 20/59/47
f 2/116/48 29/28/48 88/41/48 38/58/48
f 29/28/49 11/27/49 56/42/49 88/41/49
f 50/14/50 89/37/50 31/40/50 4/15/50
f 20/59/47 57/44/47 89/37/47 50/14/47
f 57/44/11 22/43/11 55/38/11 89/37/11
f 52/30/51 90/33/51 54/36/51 21/31/51
f 14/63/52 44/12/52 90/33/52 52/30/52
f 44/12/53 5/11/53 49/34/53 90/33/53
f 28/123/54 91/29/54 53/32/54 10/124/54
f 6/113/55 32/64/55 91/29/55 28/123/55
f 32/64/56 14/63/56 52/30/56 91/29/56
f 40/125/57 92/25/57 29/28/57 2/116/57
f 10/124/54 53/32/54 92/25/54 40/125/54
f 53/32/8 21/31/8 51/26/8 92/25/8
f 51/26/58 93/21/58 41/24/58 11/27/58
f 21/31/51 54/36/51 93/21/51 51/26/51
f 54/36/9 19/35/9 37/22/9 93/21/9
f 55/38/59 94/17/59 43/20/59 13/39/59
f 22/43/44 58/48/44 94/17/44 55/38/44
f 58/48/12 16/47/12 34/18/12 94/17/12
f 59/50/4 95/13/4 35/16/4 17/51/4
f 23/55/4 62/60/4 95/13/4 59/50/4
f 62/60/4 20/59/4 50/14/4 95/13/4
f 63/62/60 96/9/60 44/12/60 14/63/60
f 24/67/37 66/72/37 96/9/37 63/62/37
f 66/72/15 18/71/15 36/10/15 96/9/15
f 67/74/61 97/5/61 30/8/61 12/75/61
f 25/79/30 70/84/30 97/5/30 67/74/30
f 70/84/18 15/83/18 33/6/18 97/5/18
f 71/86/62 98/1/62 33/4/62 15/87/62
f 26/91/29 74/96/29 98/1/29 71/86/29
f 74/96/1 18/95/1 48/2/1 98/1/1
f 45/82/51 15/83/51 103/83/51 111/82/51
f 34/18/44 16/47/44 104/47/44 108/18/44
f 49/98/52 5/99/52 101/99/52 114/98/52
f 46/46/37 16/47/37 104/47/37 112/46/37
f 36/94/37 18/95/37 105/95/37 109/94/37
f 7/3/61 33/4/61 107/4/61 102/3/61
f 48/70/44 18/71/44 105/71/44 113/70/44
f 37/100/51 19/97/51 106/97/51 110/100/51
f 45/88/31 3/19/31 100/19/31 111/88/31
f 34/18/63 3/19/63 100/19/63 108/18/63
f 49/34/30 19/35/30 106/35/30 114/34/30
f 46/46/45 1/23/45 99/23/45 112/46/45
f 36/10/64 5/11/64 101/11/64 109/10/64
f 15/83/51 33/6/51 107/6/51 103/83/51
f 48/2/38 7/3/38 102/3/38 113/2/38
f 37/22/65 1/23/65 99/23/65 110/22/65
f 110/100/66 106/97/66 122/97/66 126/100/66
f 111/82/67 103/83/67 119/83/67 127/82/67
f 111/88/68 100/19/68 116/19/68 127/88/68
f 112/46/69 104/47/69 120/47/69 128/46/69
f 112/46/70 99/23/70 115/23/70 128/46/70
f 113/70/71 105/71/71 121/71/71 129/70/71
f 113/2/72 102/3/72 118/3/72 129/2/72
f 114/34/73 106/35/73 122/35/73 130/34/73
f 102/3/74 107/4/74 123/4/74 118/3/74
f 114/98/75 101/99/75 117/99/75 130/98/75
f 103/83/67 107/6/67 123/6/67 119/83/67
f 108/18/76 100/19/76 116/19/76 124/18/76
f 108/18/77 104/47/77 120/47/77 124/18/77
f 109/10/78 101/11/78 117/11/78 125/10/78
f 109/94/79 105/95/79 121/95/79 125/94/79
f 110/22/80 99/23/80 115/23/80 126/22/80
f 124/18/81 116/19/81 132/19/81 140/18/81
f 124/18/82 120/47/82 136/47/82 140/18/82
f 125/10/83 117/11/83 133/11/83 141/10/83
f 125/94/84 121/95/84 137/95/84 141/94/84
f 126/22/85 115/23/85 131/23/85 142/22/85
f 126/100/86 122/97/86 138/97/86 142/100/86
f 127/82/87 119/83/87 135/83/87 143/82/87
f 127/88/88 116/19/88 132/19/88 143/88/88
f 128/46/89 120/47/89 136/47/89 144/46/89
f 128/46/90 115/23/90 131/23/90 144/46/90
f 129/70/91 121/71/91 137/71/91 145/70/91
f 129/2/92 118/3/92 134/3/92 145/2/92
f 130/34/93 122/35/93 138/35/93 146/34/93
f 118/3/94 123/4/94 139/4/94 134/3/94
f 130/98/95 117/99/95 133/99/95 146/98/95
f 119/83/87 123/6/87 139/6/87 135/83/87
f 145/70/96 137/71/96 153/71/96 161/70/96
f 145/2/97 134/3/97 150/3/97 161/2/97
f 146/34/98 138/35/98 154/35/98 162/34/98
f 134/3/99 139/4/99 155/4/99 150/3/99
f 146/98/100 133/99/100 149/99/100 162/98/100
f 135/83/101 139/6/101 155/6/101 151/83/101
f 140/18/102 132/19/102 148/19/102 156/18/102
f 140/18/103 136/47/103 152/47/103 156/18/103
f 141/10/104 133/11/104 149/11/104 157/10/104
f 141/94/105 137/95/105 153/95/105 157/94/105
f 142/22/106 131/23/106 147/23/106 158/22/106
f 142/100/107 138/97/107 154/97/107 158/100/107
f 143/82/101 135/83/101 151/83/101 159/82/101
f 143/88/108 132/19/108 148/19/108 159/88/108
f 144/46/109 136/47/109 152/47/109 160/46/109
f 144/46/110 131/23/110 147/23/110 160/46/110
